<svg version="1.1" id="Layer_1" xmlns="http://www.w3.org/2000/svg" xmlns:xlink="http://www.w3.org/1999/xlink" x="0px" y="0px"
	 width="100%" viewBox="0 0 1200 1200" enable-background="new 0 0 1200 1200" xml:space="preserve">
<path fill="#393E46" opacity="1.000000" stroke="none" 
	d="
M756.000000,1201.000000 
	C504.000000,1201.000000 252.500000,1201.000000 1.000000,1201.000000 
	C1.000000,801.000000 1.000000,401.000000 1.000000,1.000000 
	C401.000000,1.000000 801.000000,1.000000 1201.000000,1.000000 
	C1201.000000,401.000000 1201.000000,801.000000 1201.000000,1201.000000 
	C1052.833374,1201.000000 904.666687,1201.000000 756.000000,1201.000000 
M325.525604,432.338837 
	C326.664764,434.121857 327.625458,436.053436 328.968658,437.666595 
	C399.840424,522.781067 470.733002,607.878235 541.653503,692.952209 
	C559.351807,714.182556 577.151184,735.328674 595.077026,757.123413 
	C597.138367,759.358582 599.199768,761.593750 601.333374,763.907349 
	C602.579163,762.354187 603.393860,761.303589 604.244385,760.282837 
	C669.372131,682.124146 734.514404,603.977661 799.627197,525.806519 
	C824.668274,495.743500 849.642700,465.624969 874.582886,435.498230 
	C874.582886,435.498230 874.513611,435.520782 874.870422,435.388245 
	C874.870422,435.388245 875.018494,435.037537 875.571594,434.753357 
	C877.827209,431.723907 874.983276,430.180023 873.542725,428.455505 
	C844.323120,393.475342 815.051025,358.538910 785.745972,323.630280 
	C785.095459,322.855316 783.937500,322.506287 782.402954,321.559784 
	C753.993042,312.693604 725.592651,303.796600 697.156555,295.015259 
	C694.666748,294.246368 691.942871,293.923370 689.327148,293.920715 
	C630.526917,293.860718 571.726624,293.855743 512.926392,293.930542 
	C509.988342,293.934265 506.937500,294.381042 504.131470,295.245636 
	C476.481842,303.764954 448.869141,312.404175 421.263306,321.064606 
	C419.785767,321.528198 418.463440,322.486450 416.331573,323.019897 
	C414.801941,324.062988 412.922363,324.818756 411.794891,326.192017 
	C394.059601,347.793213 376.389465,369.448181 358.772156,391.145844 
	C347.775818,404.688965 336.892761,418.324036 325.525604,432.338837 
M197.558823,819.132080 
	C197.022141,821.115784 196.021210,823.098511 196.017059,825.083313 
	C195.927338,868.061707 195.944992,911.040344 195.953430,954.018921 
	C195.954529,959.591553 197.300247,960.971313 202.510269,960.896057 
	C207.616043,960.822327 208.892624,959.412354 208.899216,953.711731 
	C208.913651,941.217957 208.903671,928.724182 208.903824,916.230408 
	C208.903976,904.935547 215.101288,896.750122 226.028473,893.611450 
	C239.010437,889.882690 247.039062,895.510864 247.752045,908.897278 
	C247.893616,911.555664 247.809021,914.226440 247.818466,916.891479 
	C247.855072,927.219055 247.810303,937.547668 247.953323,947.873718 
	C248.027618,953.237183 249.949020,957.892151 255.335556,959.809204 
	C262.750244,962.448059 269.792480,961.480530 275.835052,956.064148 
	C278.208221,953.936890 279.894440,951.600769 277.366119,948.335632 
	C274.806580,945.030212 272.688965,946.068115 269.829834,948.172180 
	C268.251892,949.333313 265.261597,949.817383 263.513763,949.109985 
	C262.130890,948.550415 261.370880,945.784546 260.890930,943.859619 
	C260.460449,942.132996 260.812164,940.216736 260.778870,938.384827 
	C260.555084,926.070496 260.758881,913.727356 259.947784,901.451477 
	C259.325317,892.030090 254.005219,885.124573 244.832138,882.294800 
	C232.763779,878.571777 221.779160,880.795227 212.687759,890.045410 
	C211.611633,891.140381 210.788742,892.484253 209.848434,893.712708 
	C208.903763,870.958130 208.904327,848.976379 208.903473,826.994629 
	C208.903137,818.407166 206.926926,816.873901 197.558823,819.132080 
M802.390503,958.016785 
	C803.653137,956.946411 805.014648,955.971313 806.157410,954.785339 
	C808.386230,952.472107 808.267029,949.979614 806.148132,947.686279 
	C804.049927,945.415222 802.093933,946.024292 799.579224,947.589905 
	C797.581543,948.833740 794.398621,949.781128 792.475830,949.016052 
	C791.006714,948.431396 789.987244,944.968994 789.963867,942.773987 
	C789.769043,924.468018 789.869019,906.158997 789.839539,887.850952 
	C789.831055,882.549988 788.167297,880.662170 782.965027,881.315002 
	C780.290588,881.650574 777.821167,883.620300 774.507324,885.212830 
	C773.627441,884.836365 771.678101,883.901733 769.659485,883.154114 
	C750.390381,876.016846 732.612244,884.417419 726.417419,903.933167 
	C722.608643,915.931946 722.478821,928.223633 725.919006,940.347656 
	C730.503052,956.502686 745.409058,964.991150 761.275146,959.688416 
	C767.067749,957.752441 771.902649,952.950623 776.923706,949.622498 
	C779.414856,958.533691 782.941528,961.542297 792.233093,960.951111 
	C795.439087,960.747192 798.563843,959.265503 802.390503,958.016785 
M352.634979,958.176025 
	C357.137848,954.596313 361.807953,951.203003 366.081970,947.368225 
	C368.725311,944.996643 369.280701,941.950989 366.254333,939.119812 
	C363.032410,936.105591 360.065460,936.571838 357.134430,939.593506 
	C355.512177,941.265869 353.791168,942.851868 352.027222,944.375549 
	C345.421173,950.081848 337.781433,950.807251 330.016022,947.838806 
	C322.186615,944.845886 318.812439,938.127747 317.232025,930.749146 
	C325.989471,929.115784 334.399872,927.933289 342.599396,925.900330 
	C349.632477,924.156555 355.893921,920.544373 360.554443,914.749817 
	C371.245178,901.457581 364.858063,884.134888 348.213501,881.153015 
	C329.582397,877.815369 312.204803,887.386536 306.351044,905.475586 
	C303.951019,912.892151 302.972229,921.221375 303.423309,929.015259 
	C304.413605,946.124939 313.882996,957.412048 328.422882,960.517273 
	C336.392731,962.219421 344.324493,961.742188 352.634979,958.176025 
M685.704956,937.940063 
	C682.836609,940.471558 680.123962,943.211731 677.068054,945.491821 
	C670.446716,950.432007 663.009888,950.679749 655.765381,947.521851 
	C648.504761,944.356934 645.182068,937.953979 643.794128,930.513245 
	C651.399841,929.293884 658.689392,928.503479 665.791626,926.889221 
	C674.365479,924.940491 682.202942,921.255554 687.668762,913.932129 
	C696.483093,902.122253 691.954285,886.409790 678.595581,882.155029 
	C661.816467,876.810852 643.329895,884.359070 635.092834,899.917053 
	C629.826538,909.863892 628.857788,920.531067 630.075500,931.473511 
	C631.714905,946.205322 640.705139,956.923889 653.931519,960.272217 
	C668.765259,964.027588 684.750671,958.792908 692.672180,947.231079 
	C693.850525,945.511230 694.541809,942.374573 693.768799,940.651062 
	C692.566284,937.969666 689.874451,936.040771 685.704956,937.940063 
M960.362244,954.913086 
	C974.617493,942.689026 979.370544,921.885010 972.138855,903.366455 
	C966.526794,888.995422 954.880737,880.609924 940.645325,880.690308 
	C926.071106,880.772583 913.636475,889.109436 909.021301,903.729065 
	C906.680359,911.144592 905.738586,919.464844 906.256348,927.236755 
	C908.159790,955.807678 936.471558,970.406311 960.362244,954.913086 
M144.467865,883.405396 
	C142.531021,883.405396 140.594162,883.405396 138.292923,883.405396 
	C138.292923,873.351318 138.187347,864.041382 138.344360,854.735901 
	C138.408096,850.959961 136.890213,849.243164 133.174393,848.984009 
	C127.112282,848.561279 125.410210,850.018982 125.393486,856.134155 
	C125.369034,865.070496 125.387199,874.006958 125.387199,883.428223 
	C121.296837,883.428223 117.837074,883.453674 114.377846,883.421753 
	C110.059586,883.381958 109.759064,886.294006 109.759109,889.530029 
	C109.759163,892.812805 110.182678,895.608093 114.510193,895.475220 
	C117.954048,895.369568 121.403732,895.453918 125.386696,895.453918 
	C125.386696,898.168335 125.370605,900.292908 125.389290,902.417236 
	C125.516693,916.902527 125.478912,931.392517 125.866158,945.870972 
	C126.027763,951.912842 129.038193,956.659546 134.728363,959.320557 
	C144.010956,963.661499 156.603607,960.341248 162.532410,952.076843 
	C164.284515,949.634644 164.862823,947.323242 162.444809,944.957397 
	C159.977921,942.543701 157.587143,942.402588 155.103668,944.956177 
	C154.298492,945.784180 153.390396,946.782654 152.354889,947.066406 
	C148.993362,947.987488 145.353226,949.678955 142.188202,949.091675 
	C137.938385,948.303101 138.409042,943.658691 138.371902,940.296326 
	C138.217422,926.305847 138.302887,912.312683 138.324051,898.320496 
	C138.325226,897.542053 138.539185,896.763794 138.732346,895.455566 
	C144.764786,895.455566 150.556351,895.345642 156.341385,895.492554 
	C160.484695,895.597778 161.444565,893.158325 161.460617,889.770142 
	C161.476791,886.352905 160.990417,883.327698 156.458420,883.409668 
	C152.795135,883.475891 149.129501,883.411804 144.467865,883.405396 
M853.832825,902.521057 
	C853.832825,900.255920 853.832825,897.990723 853.832825,895.456177 
	C860.036194,895.456177 865.526917,895.297913 871.003662,895.506165 
	C875.399902,895.673401 876.946350,893.565430 876.962402,889.500671 
	C876.978271,885.457520 875.472168,883.255066 871.084167,883.376892 
	C865.487732,883.532349 859.883667,883.414612 853.832153,883.414612 
	C853.832153,873.708374 853.667236,864.588135 853.898865,855.478088 
	C854.021973,850.637634 851.866028,848.885132 847.335571,848.953613 
	C842.093201,849.032837 840.930908,850.075623 840.890930,855.352783 
	C840.863159,859.014160 840.885132,862.676025 840.885071,866.337646 
	C840.885010,871.922913 840.885071,877.508179 840.885071,883.437256 
	C836.656921,883.437256 833.175903,883.433350 829.694824,883.438232 
	C825.457336,883.444275 825.024841,886.332214 825.027222,889.579041 
	C825.029724,892.912048 825.707214,895.582947 829.925842,895.464905 
	C833.388306,895.368042 836.855591,895.445190 840.885071,895.445190 
	C840.885071,897.739197 840.884705,899.525696 840.885071,901.312195 
	C840.887939,914.960144 840.818726,928.608704 840.917725,942.255920 
	C840.991150,952.386047 845.057495,958.225403 853.240662,960.422913 
	C862.660706,962.952576 874.135132,959.009827 878.196960,951.308350 
	C879.051758,949.687500 878.449890,946.551819 877.370422,944.837585 
	C875.858398,942.436401 873.263855,942.378113 870.960388,944.538635 
	C869.751587,945.672485 868.516907,947.151550 867.042908,947.553101 
	C863.847351,948.423645 860.060364,949.847046 857.346924,948.828491 
	C855.463989,948.121765 854.083557,943.745422 854.004211,940.965149 
	C853.648560,928.492249 853.839233,916.003723 853.832825,902.521057 
M470.332001,923.410339 
	C470.571503,919.763489 470.518158,916.069031 471.102356,912.478271 
	C473.361908,898.590393 482.721161,890.900146 495.793701,893.237366 
	C500.546143,894.087097 505.045837,897.418213 509.183594,900.301941 
	C512.527710,902.632690 514.995728,902.963928 517.871094,899.965332 
	C520.869873,896.837952 520.073975,894.288513 517.396790,891.362427 
	C502.666656,875.262878 475.896454,877.680115 463.994629,896.317078 
	C457.910034,905.844788 456.307617,916.420959 457.257172,927.449219 
	C458.704346,944.256714 467.317169,955.944397 480.933838,959.949951 
	C495.588989,964.260925 511.061676,959.238464 520.267029,947.300476 
	C522.436035,944.487610 523.648438,941.974792 520.318176,939.152710 
	C517.160156,936.476562 514.258301,935.927124 511.262756,939.372681 
	C509.847748,941.000183 508.270752,942.509705 506.634216,943.918213 
	C494.552765,954.316528 478.043030,950.079102 472.654266,935.063110 
	C471.434631,931.664673 471.121216,927.941101 470.332001,923.410339 
M558.323181,960.405396 
	C566.740906,961.714233 568.189819,960.538025 568.190918,952.383484 
	C568.192749,939.400330 568.057007,926.414673 568.297424,913.435974 
	C568.349854,910.604553 569.200317,907.486023 570.611450,905.033997 
	C576.614868,894.602112 584.212463,891.432922 596.658875,893.912598 
	C601.105164,894.798340 603.730225,893.120667 604.996094,888.991760 
	C606.292725,884.762695 603.268921,883.179749 600.228455,882.157227 
	C589.419556,878.522461 580.323242,881.766724 572.513367,889.568665 
	C571.329712,890.750916 570.207031,891.994141 568.190796,894.122803 
	C568.190796,891.072021 568.009521,889.408752 568.224670,887.798401 
	C568.885559,882.851135 566.244507,881.219421 561.873047,881.162231 
	C556.852295,881.096558 555.272156,882.547974 555.264526,887.608765 
	C555.230774,909.913147 555.195190,932.217896 555.349731,954.521240 
	C555.362671,956.387878 556.784119,958.244812 558.323181,960.405396 
M1017.207031,881.594543 
	C1013.915344,882.292969 1013.937866,884.783081 1013.941467,887.398499 
	C1013.972290,909.694580 1013.950500,931.990723 1013.965332,954.286804 
	C1013.968811,959.540771 1015.284424,960.878723 1020.276001,960.893066 
	C1025.455688,960.907959 1026.901855,959.434875 1026.909546,953.976074 
	C1026.928833,940.165833 1026.827759,926.354431 1027.002197,912.546387 
	C1027.031982,910.191895 1027.744385,907.604126 1028.895874,905.546326 
	C1034.923584,894.774109 1042.710205,891.405090 1055.136475,893.833069 
	C1059.888550,894.761658 1062.688599,893.131042 1063.737061,888.647644 
	C1064.740601,884.356750 1061.486206,883.105957 1058.508911,882.082520 
	C1050.776001,879.424500 1043.343628,880.388367 1036.655273,885.068726 
	C1033.333496,887.393066 1030.458618,890.355896 1027.405029,893.009460 
	C1025.553955,880.967896 1025.553955,880.967896 1017.207031,881.594543 
z"/>
<path fill="#D1D2D4" opacity="1.000000" stroke="none" 
	d="
M874.647522,435.531799 
	C849.642700,465.624969 824.668274,495.743500 799.627197,525.806519 
	C734.514404,603.977661 669.372131,682.124146 604.244385,760.282837 
	C603.393860,761.303589 602.579163,762.354187 601.333374,763.907349 
	C599.199768,761.593750 597.138367,759.358582 594.982422,756.414856 
	C594.520386,754.440430 594.369080,753.057068 593.754028,751.925842 
	C578.172974,723.267334 562.494629,694.661682 546.934937,665.991638 
	C529.415955,633.711365 512.044983,601.350708 494.515411,569.076233 
	C483.873383,549.482788 472.966278,530.033203 462.348724,510.426697 
	C456.889923,500.346466 451.804504,490.064056 446.686035,479.671783 
	C447.010864,479.196167 447.258270,478.992645 447.798279,479.206604 
	C450.054016,480.034576 452.075165,480.935608 454.096985,480.937042 
	C551.797913,481.006012 649.498840,481.003021 747.199829,480.956421 
	C749.131042,480.955505 751.062012,480.341980 753.356201,480.086426 
	C756.280884,479.888611 759.059265,480.171692 761.371094,479.264984 
	C792.296204,467.136139 823.133972,454.784607 854.049622,442.631500 
	C860.802429,439.976990 867.775757,437.883606 874.647522,435.531799 
z"/>
<path fill="#B7B8BB" opacity="1.000000" stroke="none" 
	d="
M874.615234,435.515015 
	C867.775757,437.883606 860.802429,439.976990 854.049622,442.631500 
	C823.133972,454.784607 792.296204,467.136139 761.371094,479.264984 
	C759.059265,480.171692 756.280884,479.888611 753.278931,479.730591 
	C748.015320,469.131805 743.216797,458.949249 738.364380,448.792419 
	C723.793884,418.293732 709.150024,387.829834 694.685364,357.281067 
	C692.880554,353.469269 690.637817,351.924652 686.309631,351.934692 
	C626.836060,352.072693 567.362122,352.037567 507.790588,351.813354 
	C507.637268,351.423737 507.581665,351.265656 508.023621,351.076660 
	C568.107788,351.023193 627.694519,351.030731 687.280945,350.906830 
	C691.033569,350.899017 694.918823,350.314423 698.514221,349.236938 
	C725.278076,341.216156 751.991882,333.027527 778.689575,324.788483 
	C780.272156,324.300079 781.580322,322.922394 783.016235,321.958557 
	C783.937500,322.506287 785.095459,322.855316 785.745972,323.630280 
	C815.051025,358.538910 844.323120,393.475342 873.542725,428.455505 
	C874.983276,430.180023 877.827209,431.723907 875.164307,434.863770 
	C874.756958,434.974152 874.452881,435.139648 874.452881,435.139648 
	C874.452881,435.139648 874.513611,435.520782 874.513611,435.520782 
	C874.513611,435.520782 874.582886,435.498230 874.615234,435.515015 
z"/>
<path fill="#CACBCD" opacity="1.000000" stroke="none" 
	d="
M782.709595,321.759155 
	C781.580322,322.922394 780.272156,324.300079 778.689575,324.788483 
	C751.991882,333.027527 725.278076,341.216156 698.514221,349.236938 
	C694.918823,350.314423 691.033569,350.899017 687.280945,350.906830 
	C627.694519,351.030731 568.107788,351.023193 507.648773,351.066925 
	C504.337036,350.616699 501.829132,350.367432 499.469208,349.638824 
	C480.600922,343.813293 461.739471,337.963531 442.921204,331.978851 
	C434.251526,329.221649 425.683167,326.145813 417.068878,323.214417 
	C418.463440,322.486450 419.785767,321.528198 421.263306,321.064606 
	C448.869141,312.404175 476.481842,303.764954 504.131470,295.245636 
	C506.937500,294.381042 509.988342,293.934265 512.926392,293.930542 
	C571.726624,293.855743 630.526917,293.860718 689.327148,293.920715 
	C691.942871,293.923370 694.666748,294.246368 697.156555,295.015259 
	C725.592651,303.796600 753.993042,312.693604 782.709595,321.759155 
z"/>
<path fill="#EEEEEE" opacity="1.000000" stroke="none" 
	d="
M416.700226,323.117157 
	C425.683167,326.145813 434.251526,329.221649 442.921204,331.978851 
	C461.739471,337.963531 480.600922,343.813293 499.469208,349.638824 
	C501.829132,350.367432 504.337036,350.616699 507.151215,351.097870 
	C507.581665,351.265656 507.637268,351.423737 507.569519,352.059204 
	C506.275665,354.317200 504.875061,355.988586 503.970459,357.895325 
	C495.478668,375.794952 487.069885,393.734009 478.640961,411.663452 
	C473.578827,422.431152 468.399109,433.145905 463.506104,443.989990 
	C459.870850,452.046600 456.667023,460.296936 453.148895,468.407990 
	C452.164917,470.676575 450.747559,472.757141 449.345642,475.067169 
	C449.090332,475.657288 449.018433,476.104218 448.774536,476.713531 
	C448.602570,476.875916 448.487122,477.334686 448.304749,477.391052 
	C448.061798,477.825745 448.001221,478.204102 447.821289,478.617676 
	C447.701996,478.652893 447.563995,478.859955 447.563995,478.859955 
	C447.258270,478.992645 447.010864,479.196167 446.351379,479.701324 
	C439.540375,477.779297 433.093903,475.893219 426.877808,473.426483 
	C402.873260,463.900818 378.910858,454.266571 354.998932,444.510620 
	C345.232147,440.525787 335.633850,436.127869 325.958923,431.917877 
	C336.892761,418.324036 347.775818,404.688965 358.772156,391.145844 
	C376.389465,369.448181 394.059601,347.793213 411.794891,326.192017 
	C412.922363,324.818756 414.801941,324.062988 416.700226,323.117157 
z"/>
<path fill="#E4E4E4" opacity="1.000000" stroke="none" 
	d="
M325.742249,432.128357 
	C335.633850,436.127869 345.232147,440.525787 354.998932,444.510620 
	C378.910858,454.266571 402.873260,463.900818 426.877808,473.426483 
	C433.093903,475.893219 439.540375,477.779297 446.215698,479.902527 
	C451.804504,490.064056 456.889923,500.346466 462.348724,510.426697 
	C472.966278,530.033203 483.873383,549.482788 494.515411,569.076233 
	C512.044983,601.350708 529.415955,633.711365 546.934937,665.991638 
	C562.494629,694.661682 578.172974,723.267334 593.754028,751.925842 
	C594.369080,753.057068 594.520386,754.440430 594.895935,756.109863 
	C577.151184,735.328674 559.351807,714.182556 541.653503,692.952209 
	C470.733002,607.878235 399.840424,522.781067 328.968658,437.666595 
	C327.625458,436.053436 326.664764,434.121857 325.742249,432.128357 
z"/>
<path fill="#EBEBEB" opacity="1.000000" stroke="none" 
	d="
M197.949585,818.962463 
	C206.926926,816.873901 208.903137,818.407166 208.903473,826.994629 
	C208.904327,848.976379 208.903763,870.958130 209.848434,893.712708 
	C210.788742,892.484253 211.611633,891.140381 212.687759,890.045410 
	C221.779160,880.795227 232.763779,878.571777 244.832138,882.294800 
	C254.005219,885.124573 259.325317,892.030090 259.947784,901.451477 
	C260.758881,913.727356 260.555084,926.070496 260.778870,938.384827 
	C260.812164,940.216736 260.460449,942.132996 260.890930,943.859619 
	C261.370880,945.784546 262.130890,948.550415 263.513763,949.109985 
	C265.261597,949.817383 268.251892,949.333313 269.829834,948.172180 
	C272.688965,946.068115 274.806580,945.030212 277.366119,948.335632 
	C279.894440,951.600769 278.208221,953.936890 275.835052,956.064148 
	C269.792480,961.480530 262.750244,962.448059 255.335556,959.809204 
	C249.949020,957.892151 248.027618,953.237183 247.953323,947.873718 
	C247.810303,937.547668 247.855072,927.219055 247.818466,916.891479 
	C247.809021,914.226440 247.893616,911.555664 247.752045,908.897278 
	C247.039062,895.510864 239.010437,889.882690 226.028473,893.611450 
	C215.101288,896.750122 208.903976,904.935547 208.903824,916.230408 
	C208.903671,928.724182 208.913651,941.217957 208.899216,953.711731 
	C208.892624,959.412354 207.616043,960.822327 202.510269,960.896057 
	C197.300247,960.971313 195.954529,959.591553 195.953430,954.018921 
	C195.944992,911.040344 195.927338,868.061707 196.017059,825.083313 
	C196.021210,823.098511 197.022141,821.115784 197.949585,818.962463 
z"/>
<path fill="#EBEBEB" opacity="1.000000" stroke="none" 
	d="
M802.058105,958.192139 
	C798.563843,959.265503 795.439087,960.747192 792.233093,960.951111 
	C782.941528,961.542297 779.414856,958.533691 776.923706,949.622498 
	C771.902649,952.950623 767.067749,957.752441 761.275146,959.688416 
	C745.409058,964.991150 730.503052,956.502686 725.919006,940.347656 
	C722.478821,928.223633 722.608643,915.931946 726.417419,903.933167 
	C732.612244,884.417419 750.390381,876.016846 769.659485,883.154114 
	C771.678101,883.901733 773.627441,884.836365 774.507324,885.212830 
	C777.821167,883.620300 780.290588,881.650574 782.965027,881.315002 
	C788.167297,880.662170 789.831055,882.549988 789.839539,887.850952 
	C789.869019,906.158997 789.769043,924.468018 789.963867,942.773987 
	C789.987244,944.968994 791.006714,948.431396 792.475830,949.016052 
	C794.398621,949.781128 797.581543,948.833740 799.579224,947.589905 
	C802.093933,946.024292 804.049927,945.415222 806.148132,947.686279 
	C808.267029,949.979614 808.386230,952.472107 806.157410,954.785339 
	C805.014648,955.971313 803.653137,956.946411 802.058105,958.192139 
M741.249573,942.113037 
	C746.727234,948.965271 753.549255,950.864563 762.186584,947.942078 
	C770.048096,945.282043 776.729431,936.860168 776.743164,929.539673 
	C776.760925,920.043579 776.806458,910.546692 776.686035,901.052124 
	C776.667175,899.566284 776.299805,897.532837 775.302246,896.696472 
	C764.877808,887.956848 745.221069,892.150818 740.218140,904.622864 
	C735.342529,916.777344 735.143799,929.277466 741.249573,942.113037 
z"/>
<path fill="#EAEAEA" opacity="1.000000" stroke="none" 
	d="
M352.291504,958.345581 
	C344.324493,961.742188 336.392731,962.219421 328.422882,960.517273 
	C313.882996,957.412048 304.413605,946.124939 303.423309,929.015259 
	C302.972229,921.221375 303.951019,912.892151 306.351044,905.475586 
	C312.204803,887.386536 329.582397,877.815369 348.213501,881.153015 
	C364.858063,884.134888 371.245178,901.457581 360.554443,914.749817 
	C355.893921,920.544373 349.632477,924.156555 342.599396,925.900330 
	C334.399872,927.933289 325.989471,929.115784 317.232025,930.749146 
	C318.812439,938.127747 322.186615,944.845886 330.016022,947.838806 
	C337.781433,950.807251 345.421173,950.081848 352.027222,944.375549 
	C353.791168,942.851868 355.512177,941.265869 357.134430,939.593506 
	C360.065460,936.571838 363.032410,936.105591 366.254333,939.119812 
	C369.280701,941.950989 368.725311,944.996643 366.081970,947.368225 
	C361.807953,951.203003 357.137848,954.596313 352.291504,958.345581 
M316.578491,917.689148 
	C316.792999,918.093201 317.002869,918.848145 317.222656,918.851013 
	C328.894196,919.004639 340.118927,917.449219 349.110016,909.073425 
	C352.281433,906.119080 353.019897,902.088440 351.440979,898.036682 
	C349.908325,894.103638 346.306580,893.156738 342.502869,892.864685 
	C328.727356,891.806702 318.747009,901.045105 316.578491,917.689148 
z"/>
<path fill="#EBEBEB" opacity="1.000000" stroke="none" 
	d="
M686.022217,937.744385 
	C689.874451,936.040771 692.566284,937.969666 693.768799,940.651062 
	C694.541809,942.374573 693.850525,945.511230 692.672180,947.231079 
	C684.750671,958.792908 668.765259,964.027588 653.931519,960.272217 
	C640.705139,956.923889 631.714905,946.205322 630.075500,931.473511 
	C628.857788,920.531067 629.826538,909.863892 635.092834,899.917053 
	C643.329895,884.359070 661.816467,876.810852 678.595581,882.155029 
	C691.954285,886.409790 696.483093,902.122253 687.668762,913.932129 
	C682.202942,921.255554 674.365479,924.940491 665.791626,926.889221 
	C658.689392,928.503479 651.399841,929.293884 643.794128,930.513245 
	C645.182068,937.953979 648.504761,944.356934 655.765381,947.521851 
	C663.009888,950.679749 670.446716,950.432007 677.068054,945.491821 
	C680.123962,943.211731 682.836609,940.471558 686.022217,937.744385 
M658.765137,917.440186 
	C665.150085,915.940674 671.348877,913.984070 675.849915,908.839050 
	C680.976074,902.979309 679.059082,895.292419 672.098450,893.299438 
	C657.550781,889.134033 641.201721,903.867432 643.731567,919.503418 
	C648.461914,918.906555 653.214844,918.306885 658.765137,917.440186 
z"/>
<path fill="#EBEBEB" opacity="1.000000" stroke="none" 
	d="
M960.067261,955.119751 
	C936.471558,970.406311 908.159790,955.807678 906.256348,927.236755 
	C905.738586,919.464844 906.680359,911.144592 909.021301,903.729065 
	C913.636475,889.109436 926.071106,880.772583 940.645325,880.690308 
	C954.880737,880.609924 966.526794,888.995422 972.138855,903.366455 
	C979.370544,921.885010 974.617493,942.689026 960.067261,955.119751 
M924.736877,941.676025 
	C935.608948,954.242371 953.159973,951.520447 959.316772,936.131104 
	C963.305603,926.160645 963.160461,915.920471 959.409668,905.905579 
	C956.157654,897.222656 949.600098,892.848694 940.739746,892.783203 
	C931.764648,892.716858 925.244568,896.845886 921.896118,905.600708 
	C917.267334,917.703247 917.603149,929.666199 924.736877,941.676025 
z"/>
<path fill="#E9E9E9" opacity="1.000000" stroke="none" 
	d="
M144.966400,883.405396 
	C149.129501,883.411804 152.795135,883.475891 156.458420,883.409668 
	C160.990417,883.327698 161.476791,886.352905 161.460617,889.770142 
	C161.444565,893.158325 160.484695,895.597778 156.341385,895.492554 
	C150.556351,895.345642 144.764786,895.455566 138.732346,895.455566 
	C138.539185,896.763794 138.325226,897.542053 138.324051,898.320496 
	C138.302887,912.312683 138.217422,926.305847 138.371902,940.296326 
	C138.409042,943.658691 137.938385,948.303101 142.188202,949.091675 
	C145.353226,949.678955 148.993362,947.987488 152.354889,947.066406 
	C153.390396,946.782654 154.298492,945.784180 155.103668,944.956177 
	C157.587143,942.402588 159.977921,942.543701 162.444809,944.957397 
	C164.862823,947.323242 164.284515,949.634644 162.532410,952.076843 
	C156.603607,960.341248 144.010956,963.661499 134.728363,959.320557 
	C129.038193,956.659546 126.027763,951.912842 125.866158,945.870972 
	C125.478912,931.392517 125.516693,916.902527 125.389290,902.417236 
	C125.370605,900.292908 125.386696,898.168335 125.386696,895.453918 
	C121.403732,895.453918 117.954048,895.369568 114.510193,895.475220 
	C110.182678,895.608093 109.759163,892.812805 109.759109,889.530029 
	C109.759064,886.294006 110.059586,883.381958 114.377846,883.421753 
	C117.837074,883.453674 121.296837,883.428223 125.387199,883.428223 
	C125.387199,874.006958 125.369034,865.070496 125.393486,856.134155 
	C125.410210,850.018982 127.112282,848.561279 133.174393,848.984009 
	C136.890213,849.243164 138.408096,850.959961 138.344360,854.735901 
	C138.187347,864.041382 138.292923,873.351318 138.292923,883.405396 
	C140.594162,883.405396 142.531021,883.405396 144.966400,883.405396 
z"/>
<path fill="#EAEAEA" opacity="1.000000" stroke="none" 
	d="
M853.832825,903.020996 
	C853.839233,916.003723 853.648560,928.492249 854.004211,940.965149 
	C854.083557,943.745422 855.463989,948.121765 857.346924,948.828491 
	C860.060364,949.847046 863.847351,948.423645 867.042908,947.553101 
	C868.516907,947.151550 869.751587,945.672485 870.960388,944.538635 
	C873.263855,942.378113 875.858398,942.436401 877.370422,944.837585 
	C878.449890,946.551819 879.051758,949.687500 878.196960,951.308350 
	C874.135132,959.009827 862.660706,962.952576 853.240662,960.422913 
	C845.057495,958.225403 840.991150,952.386047 840.917725,942.255920 
	C840.818726,928.608704 840.887939,914.960144 840.885071,901.312195 
	C840.884705,899.525696 840.885071,897.739197 840.885071,895.445190 
	C836.855591,895.445190 833.388306,895.368042 829.925842,895.464905 
	C825.707214,895.582947 825.029724,892.912048 825.027222,889.579041 
	C825.024841,886.332214 825.457336,883.444275 829.694824,883.438232 
	C833.175903,883.433350 836.656921,883.437256 840.885071,883.437256 
	C840.885071,877.508179 840.885010,871.922913 840.885071,866.337646 
	C840.885132,862.676025 840.863159,859.014160 840.890930,855.352783 
	C840.930908,850.075623 842.093201,849.032837 847.335571,848.953613 
	C851.866028,848.885132 854.021973,850.637634 853.898865,855.478088 
	C853.667236,864.588135 853.832153,873.708374 853.832153,883.414612 
	C859.883667,883.414612 865.487732,883.532349 871.084167,883.376892 
	C875.472168,883.255066 876.978271,885.457520 876.962402,889.500671 
	C876.946350,893.565430 875.399902,895.673401 871.003662,895.506165 
	C865.526917,895.297913 860.036194,895.456177 853.832825,895.456177 
	C853.832825,897.990723 853.832825,900.255920 853.832825,903.020996 
z"/>
<path fill="#EAEAEA" opacity="1.000000" stroke="none" 
	d="
M470.361328,923.888794 
	C471.121216,927.941101 471.434631,931.664673 472.654266,935.063110 
	C478.043030,950.079102 494.552765,954.316528 506.634216,943.918213 
	C508.270752,942.509705 509.847748,941.000183 511.262756,939.372681 
	C514.258301,935.927124 517.160156,936.476562 520.318176,939.152710 
	C523.648438,941.974792 522.436035,944.487610 520.267029,947.300476 
	C511.061676,959.238464 495.588989,964.260925 480.933838,959.949951 
	C467.317169,955.944397 458.704346,944.256714 457.257172,927.449219 
	C456.307617,916.420959 457.910034,905.844788 463.994629,896.317078 
	C475.896454,877.680115 502.666656,875.262878 517.396790,891.362427 
	C520.073975,894.288513 520.869873,896.837952 517.871094,899.965332 
	C514.995728,902.963928 512.527710,902.632690 509.183594,900.301941 
	C505.045837,897.418213 500.546143,894.087097 495.793701,893.237366 
	C482.721161,890.900146 473.361908,898.590393 471.102356,912.478271 
	C470.518158,916.069031 470.571503,919.763489 470.361328,923.888794 
z"/>
<path fill="#E9E9E9" opacity="1.000000" stroke="none" 
	d="
M557.937195,960.255798 
	C556.784119,958.244812 555.362671,956.387878 555.349731,954.521240 
	C555.195190,932.217896 555.230774,909.913147 555.264526,887.608765 
	C555.272156,882.547974 556.852295,881.096558 561.873047,881.162231 
	C566.244507,881.219421 568.885559,882.851135 568.224670,887.798401 
	C568.009521,889.408752 568.190796,891.072021 568.190796,894.122803 
	C570.207031,891.994141 571.329712,890.750916 572.513367,889.568665 
	C580.323242,881.766724 589.419556,878.522461 600.228455,882.157227 
	C603.268921,883.179749 606.292725,884.762695 604.996094,888.991760 
	C603.730225,893.120667 601.105164,894.798340 596.658875,893.912598 
	C584.212463,891.432922 576.614868,894.602112 570.611450,905.033997 
	C569.200317,907.486023 568.349854,910.604553 568.297424,913.435974 
	C568.057007,926.414673 568.192749,939.400330 568.190918,952.383484 
	C568.189819,960.538025 566.740906,961.714233 557.937195,960.255798 
z"/>
<path fill="#EBEBEB" opacity="1.000000" stroke="none" 
	d="
M1017.610718,881.484375 
	C1025.553955,880.967896 1025.553955,880.967896 1027.405029,893.009460 
	C1030.458618,890.355896 1033.333496,887.393066 1036.655273,885.068726 
	C1043.343628,880.388367 1050.776001,879.424500 1058.508911,882.082520 
	C1061.486206,883.105957 1064.740601,884.356750 1063.737061,888.647644 
	C1062.688599,893.131042 1059.888550,894.761658 1055.136475,893.833069 
	C1042.710205,891.405090 1034.923584,894.774109 1028.895874,905.546326 
	C1027.744385,907.604126 1027.031982,910.191895 1027.002197,912.546387 
	C1026.827759,926.354431 1026.928833,940.165833 1026.909546,953.976074 
	C1026.901855,959.434875 1025.455688,960.907959 1020.276001,960.893066 
	C1015.284424,960.878723 1013.968811,959.540771 1013.965332,954.286804 
	C1013.950500,931.990723 1013.972290,909.694580 1013.941467,887.398499 
	C1013.937866,884.783081 1013.915344,882.292969 1017.610718,881.484375 
z"/>
<path fill="#D1D2D4" opacity="1.000000" stroke="none" 
	d="
M874.692017,435.454529 
	C874.513611,435.520782 874.452881,435.139648 874.452881,435.139648 
	C874.452881,435.139648 874.756958,434.974152 874.887695,435.005859 
	C875.018494,435.037537 874.870422,435.388245 874.692017,435.454529 
z"/>
<path fill="#CACBCD" opacity="1.000000" stroke="none" 
	d="
M449.528992,474.923950 
	C450.747559,472.757141 452.164917,470.676575 453.148895,468.407990 
	C456.667023,460.296936 459.870850,452.046600 463.506104,443.989990 
	C468.399109,433.145905 473.578827,422.431152 478.640961,411.663452 
	C487.069885,393.734009 495.478668,375.794952 503.970459,357.895325 
	C504.875061,355.988586 506.275665,354.317200 507.667236,352.290771 
	C567.362122,352.037567 626.836060,352.072693 686.309631,351.934692 
	C690.637817,351.924652 692.880554,353.469269 694.685364,357.281067 
	C709.150024,387.829834 723.793884,418.293732 738.364380,448.792419 
	C743.216797,458.949249 748.015320,469.131805 752.915771,479.658417 
	C751.062012,480.341980 749.131042,480.955505 747.199829,480.956421 
	C649.498840,481.003021 551.797913,481.006012 454.096985,480.937042 
	C452.075165,480.935608 450.054016,480.034576 447.798279,479.206604 
	C447.563995,478.859955 447.701996,478.652893 447.980774,478.508362 
	C448.335419,478.020782 448.411255,477.677734 448.487122,477.334686 
	C448.487122,477.334686 448.602570,476.875916 448.947021,476.560974 
	C449.370667,475.805328 449.449829,475.364655 449.528992,474.923950 
z"/>
<path fill="#D1D2D4" opacity="1.000000" stroke="none" 
	d="
M448.304749,477.391052 
	C448.411255,477.677734 448.335419,478.020782 448.100098,478.473145 
	C448.001221,478.204102 448.061798,477.825745 448.304749,477.391052 
z"/>
<path fill="#D1D2D4" opacity="1.000000" stroke="none" 
	d="
M449.345612,475.067169 
	C449.449829,475.364655 449.370667,475.805328 449.119019,476.398590 
	C449.018433,476.104218 449.090332,475.657288 449.345612,475.067169 
z"/>
<path fill="#3B4048" opacity="1.000000" stroke="none" 
	d="
M741.073181,941.781738 
	C735.143799,929.277466 735.342529,916.777344 740.218140,904.622864 
	C745.221069,892.150818 764.877808,887.956848 775.302246,896.696472 
	C776.299805,897.532837 776.667175,899.566284 776.686035,901.052124 
	C776.806458,910.546692 776.760925,920.043579 776.743164,929.539673 
	C776.729431,936.860168 770.048096,945.282043 762.186584,947.942078 
	C753.549255,950.864563 746.727234,948.965271 741.073181,941.781738 
z"/>
<path fill="#3B4048" opacity="1.000000" stroke="none" 
	d="
M316.623444,917.226013 
	C318.747009,901.045105 328.727356,891.806702 342.502869,892.864685 
	C346.306580,893.156738 349.908325,894.103638 351.440979,898.036682 
	C353.019897,902.088440 352.281433,906.119080 349.110016,909.073425 
	C340.118927,917.449219 328.894196,919.004639 317.222656,918.851013 
	C317.002869,918.848145 316.792999,918.093201 316.623444,917.226013 
z"/>
<path fill="#3B4048" opacity="1.000000" stroke="none" 
	d="
M658.366455,917.573730 
	C653.214844,918.306885 648.461914,918.906555 643.731567,919.503418 
	C641.201721,903.867432 657.550781,889.134033 672.098450,893.299438 
	C679.059082,895.292419 680.976074,902.979309 675.849915,908.839050 
	C671.348877,913.984070 665.150085,915.940674 658.366455,917.573730 
z"/>
<path fill="#3B4048" opacity="1.000000" stroke="none" 
	d="
M924.511230,941.389832 
	C917.603149,929.666199 917.267334,917.703247 921.896118,905.600708 
	C925.244568,896.845886 931.764648,892.716858 940.739746,892.783203 
	C949.600098,892.848694 956.157654,897.222656 959.409668,905.905579 
	C963.160461,915.920471 963.305603,926.160645 959.316772,936.131104 
	C953.159973,951.520447 935.608948,954.242371 924.511230,941.389832 
z"/>
</svg>