<svg version="1.1" id="Layer_1" xmlns="http://www.w3.org/2000/svg" xmlns:xlink="http://www.w3.org/1999/xlink" x="0px" y="0px"
	 width="100%" viewBox="0 0 1200 1200" enable-background="new 0 0 1200 1200" xml:space="preserve">
<path fill="#000000" opacity="1.000000" stroke="none" 
	d="
M664.000000,1201.000000 
	C442.666656,1201.000000 221.833328,1201.000000 1.000000,1201.000000 
	C1.000000,801.000000 1.000000,401.000000 1.000000,1.000000 
	C401.000000,1.000000 801.000000,1.000000 1201.000000,1.000000 
	C1201.000000,401.000000 1201.000000,801.000000 1201.000000,1201.000000 
	C1022.166687,1201.000000 843.333313,1201.000000 664.000000,1201.000000 
M109.390884,488.075226 
	C109.127457,488.398285 108.864029,488.721344 108.309296,489.072601 
	C108.110657,489.178558 108.027794,489.342896 107.441704,489.984772 
	C107.203476,490.669769 106.965240,491.354736 106.129242,492.296112 
	C103.431709,495.383759 100.432549,498.259460 98.088348,501.595367 
	C87.344902,516.883972 78.815903,533.196838 73.727661,551.370117 
	C68.062355,571.604370 66.448792,592.082886 69.199875,612.729309 
	C71.665428,631.232788 77.397369,648.805725 86.531029,665.351379 
	C98.576721,687.172058 114.837929,704.923645 135.201141,719.033386 
	C149.980026,729.273743 166.147247,736.636353 183.481400,741.354614 
	C182.644485,747.075500 181.075058,752.686462 181.155045,758.273743 
	C181.348663,771.796997 181.636871,785.384033 183.127350,798.807678 
	C185.187363,817.360474 192.315552,834.371216 201.823944,850.341003 
	C210.063248,864.179443 220.267365,876.368652 232.382431,887.077332 
	C243.614059,897.005127 255.930847,905.233765 269.380646,911.607056 
	C288.468811,920.652100 308.764465,925.426453 330.804260,926.975830 
	C358.664032,926.931641 386.523804,926.887451 414.871613,927.316711 
	C415.578796,927.710815 416.264069,928.152100 416.996338,928.492249 
	C435.169617,936.935303 452.901550,946.584473 471.650330,953.460693 
	C490.514557,960.379211 510.158661,965.737549 529.890991,969.559570 
	C548.673157,973.197571 567.970154,974.684326 587.117126,975.768250 
	C601.809143,976.599976 616.657776,975.875427 631.366882,974.845642 
	C645.402954,973.862915 659.553101,972.553467 673.282471,969.640686 
	C690.423584,966.004150 707.369568,961.153381 724.065918,955.787842 
	C746.317627,948.637085 767.510986,938.877319 788.602661,926.987793 
	C816.449585,926.942383 844.296509,926.896973 872.971130,926.987244 
	C879.730347,926.012390 886.517395,925.198364 893.244141,924.035583 
	C927.315125,918.146118 956.055969,902.012634 979.860229,877.345642 
	C991.836365,864.935486 1001.368225,850.579834 1008.261475,834.544006 
	C1015.849243,816.892578 1021.048218,798.732056 1020.936096,779.418396 
	C1020.862915,766.807495 1020.020874,754.201111 1019.510437,741.270569 
	C1098.825806,719.163086 1147.060791,642.587708 1130.921997,561.613770 
	C1124.030273,527.035706 1105.808960,498.677032 1079.246094,475.781433 
	C1062.412598,461.271942 1043.149780,451.028564 1021.161987,445.099152 
	C1021.125122,444.364777 1021.040039,443.066315 1020.997742,441.766479 
	C1020.669189,431.673798 1020.747925,421.548859 1019.941711,411.494751 
	C1018.340454,391.524689 1011.828430,373.088165 1002.339478,355.446106 
	C994.700317,341.243103 984.561035,329.107666 973.151306,318.106262 
	C959.842468,305.273560 944.553772,294.951813 927.277588,288.064423 
	C912.353271,282.114624 897.263489,276.513733 880.753052,276.947937 
	C878.858826,276.997742 876.943787,276.256683 874.594910,275.138214 
	C845.611389,275.145233 816.627930,275.152252 787.142761,274.696960 
	C774.739075,268.458069 762.507385,261.840851 749.877197,256.100311 
	C739.823364,251.530762 729.500916,247.272675 718.908569,244.231888 
	C702.186890,239.431534 685.270691,235.073608 668.189697,231.830032 
	C653.093140,228.963287 637.700684,226.929153 622.362732,226.251450 
	C605.151367,225.490952 587.820679,226.114792 570.605408,227.171463 
	C556.565613,228.033173 542.395874,229.393555 528.687134,232.382919 
	C510.610596,236.324768 492.733734,241.476608 475.127045,247.202911 
	C453.837952,254.126862 433.584747,263.629547 413.348846,275.020691 
	C385.905334,275.012604 358.461761,274.991943 331.018341,275.034210 
	C329.665527,275.036285 328.313599,275.587585 326.087799,275.983398 
	C321.171906,276.325562 316.154938,276.154114 311.357391,277.097839 
	C289.271210,281.442291 268.403381,288.937317 249.608948,301.679352 
	C236.131744,310.816498 224.188614,321.442047 213.969360,334.247406 
	C204.263947,346.408875 196.680237,359.592285 190.907623,373.946350 
	C182.711319,394.327118 179.805740,415.551636 181.094391,437.351227 
	C181.418243,442.829620 180.303345,445.274445 174.459991,447.177368 
	C164.425278,450.445221 154.538300,454.782928 145.432236,460.111938 
	C136.426056,465.382507 128.462784,472.435120 119.410583,478.967560 
	C118.913818,479.297699 118.417061,479.627869 117.983406,479.978760 
	C117.983406,479.978760 117.971558,479.913422 117.432541,480.042969 
	C117.261086,480.354095 117.089630,480.665253 116.984947,480.985077 
	C116.984947,480.985077 116.981087,480.917847 116.434853,481.040405 
	C116.261635,481.354431 116.088425,481.668457 115.985016,481.984955 
	C115.985016,481.984955 115.983063,481.915131 115.435066,482.040283 
	C115.262413,482.356018 115.089760,482.671753 114.990898,482.990326 
	C114.990898,482.990326 114.993073,482.916504 114.446251,483.049805 
	C114.270187,483.365112 114.094131,483.680450 113.995796,483.995667 
	C113.995796,483.995667 113.995461,483.917969 113.447708,484.049164 
	C113.271248,484.364563 113.094788,484.679962 112.994171,484.993805 
	C112.994171,484.993805 112.992226,484.917969 112.444542,485.046173 
	C112.268822,485.361206 112.093109,485.676208 111.991043,485.991211 
	C111.991043,485.991211 111.990448,485.917572 111.442062,486.043671 
	C111.266747,486.358917 111.091431,486.674164 110.988831,486.989075 
	C110.988831,486.989075 110.987793,486.916351 110.439781,487.041046 
	C110.264984,487.355957 110.090187,487.670868 109.991417,487.991638 
	C109.991417,487.991638 109.996696,487.915558 109.390884,488.075226 
z"/>
<path fill="#E20049" opacity="1.000000" stroke="none" 
	d="
M414.336609,275.156982 
	C433.584747,263.629547 453.837952,254.126862 475.127045,247.202911 
	C492.733734,241.476608 510.610596,236.324768 528.687134,232.382919 
	C542.395874,229.393555 556.565613,228.033173 570.605408,227.171463 
	C587.820679,226.114792 605.151367,225.490952 622.362732,226.251450 
	C637.700684,226.929153 653.093140,228.963287 668.189697,231.830032 
	C685.270691,235.073608 702.186890,239.431534 718.908569,244.231888 
	C729.500916,247.272675 739.823364,251.530762 749.877197,256.100311 
	C762.507385,261.840851 774.739075,268.458069 787.542969,275.168396 
	C788.280579,275.797546 788.617981,275.955231 789.177490,276.366150 
	C793.187744,278.812927 796.975952,281.006470 800.960327,283.475952 
	C804.522339,285.877502 807.888184,288.003113 811.439697,290.379822 
	C815.008789,292.999115 818.392151,295.367340 822.079590,297.937500 
	C825.171570,300.167084 827.959656,302.194702 830.937622,304.501404 
	C834.224243,307.185944 837.320862,309.591370 840.598389,312.308350 
	C843.152100,314.543091 845.524963,316.466339 848.057617,318.666229 
	C850.986389,321.521790 853.755554,324.100739 856.816284,326.905945 
	C859.301575,329.087677 861.495239,331.043091 863.870239,333.295807 
	C866.514343,336.052856 868.976990,338.512573 871.630005,341.273132 
	C874.118530,344.011414 876.416809,346.448853 878.931641,349.168396 
	C881.985352,352.609314 884.822510,355.768127 887.803467,359.213257 
	C888.297302,359.700378 888.647217,359.901245 888.991333,360.067749 
	C888.985535,360.033417 888.918579,360.052643 888.956543,360.393494 
	C891.782837,364.147827 894.571106,367.561340 897.482727,371.219116 
	C898.057983,371.687164 898.509949,371.910980 898.948975,372.099426 
	C898.936157,372.064056 898.866882,372.093323 898.912109,372.394287 
	C899.303223,372.812256 899.649170,372.929260 899.978638,373.044556 
	C899.962158,373.042847 899.951904,373.011383 899.853882,373.366638 
	C908.139709,386.262817 916.523560,398.803680 925.042114,411.656311 
	C928.255432,417.721100 931.334106,423.474152 934.553223,429.509033 
	C936.710754,433.709473 938.727905,437.628082 940.842407,441.929138 
	C942.624878,445.891632 944.309937,449.471710 946.026489,453.413635 
	C947.424500,456.945343 948.791138,460.115173 950.201782,463.633026 
	C951.548645,467.328613 952.851501,470.676178 954.176392,474.382080 
	C955.283691,477.784271 956.368958,480.828125 957.552124,484.269287 
	C958.722961,487.825348 959.795898,490.984131 960.875061,494.519897 
	C961.691162,497.700867 962.501038,500.504883 963.343384,503.714569 
	C964.248535,507.190033 965.121155,510.259766 965.976196,513.709717 
	C966.646606,516.810425 967.334534,519.530884 968.008850,522.643005 
	C968.657349,526.029785 969.319519,529.024841 969.959595,532.439453 
	C970.408875,535.625610 970.880310,538.392395 971.350220,541.528381 
	C971.796814,544.293640 972.244995,546.689636 972.689148,549.494751 
	C972.984375,552.191162 973.283752,554.478455 973.564453,557.240601 
	C974.040344,563.354004 974.971985,568.994263 974.951721,574.630981 
	C974.874756,596.084351 974.490479,617.536499 974.136963,639.380981 
	C973.813293,642.054199 973.573608,644.335510 973.210571,647.066772 
	C972.898621,649.375549 972.710022,651.234497 972.384888,653.442139 
	C971.491638,659.182190 970.734863,664.573486 969.778625,670.284851 
	C969.059326,673.648621 968.539490,676.692261 967.842529,680.082764 
	C967.108276,683.173279 966.551208,685.916931 965.773071,688.990601 
	C964.806030,692.438354 964.060120,695.556274 963.172852,699.002686 
	C962.309814,702.167297 961.588257,705.003296 960.610962,708.106506 
	C959.385315,711.619690 958.415405,714.865662 957.283569,718.394897 
	C956.133240,721.768677 955.144714,724.859314 953.991577,728.279907 
	C952.600769,731.973572 951.374695,735.337402 949.947021,739.020752 
	C948.495117,742.538635 947.244751,745.737000 945.730225,749.171997 
	C943.892151,753.082642 942.318176,756.756592 940.520325,760.635620 
	C938.333618,764.812927 936.370789,768.785034 934.251282,773.110840 
	C931.032410,779.189697 927.970215,784.914978 924.636719,790.873596 
	C916.688965,802.566040 908.995911,814.013977 901.365112,825.503357 
	C900.685791,826.526184 900.411926,827.818359 899.955933,828.970520 
	C899.962158,828.955566 899.994141,828.950562 899.687744,828.858337 
	C898.700500,829.521729 898.019714,830.277405 897.135620,831.312378 
	C894.260315,835.044006 891.588318,838.496338 888.950378,841.957458 
	C888.984436,841.966248 888.996460,841.897034 888.681641,841.951782 
	C888.131104,842.357422 887.895508,842.708313 887.387085,843.219116 
	C884.323059,846.618896 881.531738,849.858887 878.489502,853.291504 
	C875.971985,855.998230 873.705322,858.512329 871.172424,861.178223 
	C868.493225,863.886902 866.080200,866.443665 863.404175,869.178955 
	C860.934265,871.341858 858.727356,873.326172 856.300415,875.506348 
	C853.337830,878.337585 850.595276,880.972961 847.548706,883.773193 
	C844.968994,885.959717 842.693237,887.981262 840.116272,890.080872 
	C836.781982,892.697998 833.748962,895.237061 830.400757,897.894043 
	C827.305054,900.089417 824.524414,902.166809 821.456726,904.371277 
	C817.850769,906.965271 814.531921,909.432190 810.875000,912.014465 
	C807.254028,914.226135 803.971191,916.322571 800.426392,918.575439 
	C796.429260,921.109436 792.694031,923.487000 788.679504,925.947632 
	C788.135376,926.302673 787.870483,926.574707 787.605591,926.846741 
	C767.510986,938.877319 746.317627,948.637085 724.065918,955.787842 
	C707.369568,961.153381 690.423584,966.004150 673.282471,969.640686 
	C659.553101,972.553467 645.402954,973.862915 631.366882,974.845642 
	C616.657776,975.875427 601.809143,976.599976 587.117126,975.768250 
	C567.970154,974.684326 548.673157,973.197571 529.890991,969.559570 
	C510.158661,965.737549 490.514557,960.379211 471.650330,953.460693 
	C452.901550,946.584473 435.169617,936.935303 416.996338,928.492249 
	C416.264069,928.152100 415.578796,927.710815 414.477661,926.836304 
	C413.744720,926.191406 413.405792,926.026794 412.847107,925.608704 
	C408.866821,923.034973 405.106262,920.714661 401.004395,918.216431 
	C397.369965,915.992310 394.076874,913.946167 390.597443,911.644714 
	C387.033600,909.011047 383.656128,906.632690 379.980408,904.041138 
	C376.897461,901.810913 374.112823,899.793884 371.127136,897.499146 
	C367.774139,894.607910 364.622192,891.994385 361.157379,889.166626 
	C358.605591,887.170105 356.366608,885.387878 353.964447,883.327576 
	C351.074493,880.658508 348.347687,878.267456 345.493286,875.597412 
	C343.025604,873.211182 340.685516,871.104004 338.159546,868.700195 
	C335.503296,865.942871 333.032898,863.482239 330.376373,860.717041 
	C327.734894,858.079529 325.279480,855.746460 322.784790,853.059570 
	C319.947540,849.491943 317.149658,846.278198 314.207092,842.776611 
	C313.709473,842.291321 313.356598,842.093872 313.009613,841.930908 
	C313.015503,841.965454 313.082886,841.946533 313.047852,841.604370 
	C310.222473,837.850281 307.432129,834.438354 304.517426,830.783081 
	C303.941376,830.314575 303.489716,830.089539 303.051331,829.900574 
	C303.064636,829.936707 303.135559,829.906616 303.090393,829.604370 
	C302.699188,829.185730 302.353180,829.069275 302.022156,828.955688 
	C302.037140,828.958496 302.049072,828.986511 302.152588,828.632080 
	C293.867554,815.737915 285.478943,803.198242 276.956848,790.346191 
	C273.743500,784.276245 270.663635,778.518738 267.441254,772.481567 
	C265.286530,768.344238 263.274323,764.486511 261.184052,760.279114 
	C259.403137,756.259705 257.700317,752.589905 255.966537,748.559998 
	C254.568832,745.030579 253.202072,741.861328 251.785645,738.346558 
	C250.436600,734.646729 249.137192,731.292480 247.813629,727.582458 
	C246.692902,724.180115 245.596344,721.133484 244.409515,717.691101 
	C243.252136,714.151978 242.185013,711.008667 241.114136,707.487549 
	C240.293518,704.291077 239.476669,701.472351 238.622574,698.251465 
	C237.720596,694.791199 236.855896,691.733215 236.010132,688.294800 
	C235.343109,685.189392 234.657135,682.464355 233.985748,679.348450 
	C233.337418,675.966492 232.674500,672.975342 232.033371,669.561523 
	C231.184052,663.798218 230.312958,658.457581 229.439545,652.645996 
	C229.176941,650.323669 228.916656,648.472412 228.694153,646.257568 
	C228.411270,643.592224 228.090591,641.290405 227.819458,638.562378 
	C227.571762,634.670715 227.264984,631.205994 226.978851,627.739624 
	C225.022003,604.033264 226.149734,580.387512 228.538101,556.431946 
	C228.887619,553.762756 229.080353,551.425415 229.482544,548.783142 
	C230.003632,546.043457 230.315247,543.608704 230.745209,540.766357 
	C231.244095,537.576050 231.624603,534.793274 232.196350,531.682495 
	C232.914383,528.320068 233.441177,525.285706 234.140533,521.902710 
	C234.872406,518.806519 235.431732,516.059021 236.204132,512.978394 
	C237.166275,509.540375 237.915359,506.435425 238.808502,503.001556 
	C239.673325,499.819946 240.394104,496.967224 241.368607,493.853516 
	C242.567352,490.232269 243.512360,486.872070 244.658875,483.202209 
	C245.852127,479.943451 246.843857,476.994385 247.991470,473.711273 
	C249.375809,470.017151 250.604248,466.657104 252.031952,462.975708 
	C253.485657,459.454285 254.740112,456.254150 256.253845,452.814575 
	C258.095001,448.835815 259.676880,445.096527 261.500031,441.091064 
	C263.683777,436.956360 265.626251,433.087738 267.732849,428.869690 
	C270.961823,422.785339 274.026611,417.050476 277.362305,411.086975 
	C285.294495,399.406281 292.971802,387.964813 300.589935,376.484100 
	C301.271790,375.456543 301.570587,374.174835 302.042145,373.026459 
	C302.037018,373.041779 302.004913,373.045441 302.307770,373.084595 
	C302.782135,372.777588 302.953613,372.431427 303.092102,372.070862 
	C303.059082,372.056458 303.035339,372.124481 303.309784,372.158752 
	C303.931213,371.785004 304.278198,371.376953 304.832733,370.690918 
	C307.720276,366.960785 310.400269,363.508606 313.047424,360.045685 
	C313.014557,360.034912 313.002838,360.103058 313.323669,360.042847 
	C313.889465,359.625092 314.134399,359.267517 314.645752,358.746216 
	C317.549377,355.243042 320.186554,351.903564 323.071198,348.348969 
	C325.732544,345.747009 328.146423,343.360168 330.825378,340.819641 
	C333.503540,338.109955 335.916626,335.553955 338.592041,332.817993 
	C341.059845,330.649811 343.265259,328.661560 345.691284,326.478760 
	C348.648346,323.653351 351.384766,321.022430 354.425079,318.223938 
	C357.013000,316.037384 359.297058,314.018402 361.880890,311.916809 
	C365.214325,309.297546 368.248016,306.760956 371.595825,304.103333 
	C374.694427,301.901917 377.478882,299.821503 380.546021,297.610046 
	C384.129822,295.028503 387.430908,292.578064 391.075623,290.015625 
	C394.726227,287.805084 398.033203,285.706573 401.599609,283.447266 
	C405.585999,280.894043 409.312988,278.501617 413.309540,276.030151 
	C413.831604,275.686401 414.084106,275.421692 414.336609,275.156982 
M595.949463,514.237793 
	C571.323730,520.697510 557.818665,540.037903 560.115540,565.554993 
	C563.275879,600.664368 600.355774,617.949402 629.251404,597.768433 
	C631.397095,596.269836 633.430237,594.609924 635.268066,593.213196 
	C640.716553,596.263000 640.419861,605.925598 649.452698,604.625671 
	C649.452698,575.281494 649.452698,546.269409 649.452698,517.258179 
	C641.043335,515.477356 640.541931,524.309753 635.483032,526.836426 
	C616.486633,513.792175 612.894531,512.606873 595.949463,514.237793 
M366.339813,509.880371 
	C372.842682,512.901367 379.345551,515.922363 386.124359,519.071533 
	C389.577576,513.354431 393.511963,506.840759 397.397766,500.407501 
	C378.737061,481.990082 340.754242,477.880615 315.392731,503.106964 
	C290.850006,527.518860 291.426941,567.108337 316.580414,590.746216 
	C342.293793,614.910156 379.813568,610.041687 397.376343,592.168823 
	C393.455994,585.718018 389.507141,579.220215 385.550293,572.709351 
	C364.600098,586.821777 348.287415,587.268188 333.493134,574.330383 
	C320.817230,563.245117 317.103577,545.178894 324.424194,530.212219 
	C331.976410,514.772034 348.550934,506.495392 366.339813,509.880371 
M474.395111,545.057739 
	C473.928558,552.805908 472.465271,560.649536 473.195770,568.283142 
	C474.898651,586.078491 488.958984,600.979614 506.557098,605.087280 
	C524.754883,609.334839 543.701111,602.231018 553.375610,587.710876 
	C547.924316,582.360168 542.513977,577.049561 537.160828,571.795105 
	C530.509094,581.802063 521.940369,585.836548 512.342224,582.748108 
	C526.328003,565.891907 540.161072,549.219788 554.038879,532.493713 
	C542.314697,517.612488 527.496155,511.135284 509.345581,514.223999 
	C492.001312,517.175476 480.304626,527.435059 474.395111,545.057739 
M751.764648,595.760803 
	C766.410950,607.430481 782.573425,609.915833 799.455139,601.984680 
	C816.770142,593.849976 825.138489,579.237671 825.322144,560.291504 
	C825.502930,541.645081 818.105530,526.661133 800.916931,518.308716 
	C784.078247,510.126373 767.466309,511.722443 752.573792,523.401794 
	C730.623535,540.616028 730.126221,575.343567 751.764648,595.760803 
M727.955750,522.627747 
	C727.955750,520.859009 727.955750,519.090332 727.955750,516.843262 
	C716.316406,516.843262 705.256165,516.843262 693.770935,516.843262 
	C693.770935,504.954987 693.770935,493.548065 693.770935,482.173157 
	C686.247253,482.173157 679.169556,482.173157 671.610229,482.173157 
	C671.610229,493.871521 671.610229,505.274567 671.610229,517.176392 
	C667.716492,517.176392 664.307617,517.176392 661.056396,517.176392 
	C661.056396,524.778198 661.056396,531.865417 661.056396,539.548584 
	C664.768127,539.548584 668.147278,539.548584 671.820923,539.548584 
	C671.820923,549.137451 671.590332,558.127075 671.874084,567.100464 
	C672.318909,581.166626 679.034302,591.693848 690.833435,599.150330 
	C702.313599,606.405151 715.000671,604.757446 727.561096,604.669678 
	C727.561096,597.016663 727.561096,589.822083 727.561096,582.174133 
	C721.196838,582.174133 715.210876,582.421082 709.253845,582.111389 
	C701.890869,581.728638 694.964355,576.126526 694.412354,568.906616 
	C693.671082,559.210815 694.228699,549.415649 694.228699,539.090942 
	C705.607788,539.090942 716.649719,539.090942 727.955750,539.090942 
	C727.955750,533.542297 727.955750,528.569641 727.955750,522.627747 
M460.441254,516.998047 
	C446.614075,516.462830 432.990845,516.738037 422.330627,526.893738 
	C417.300781,524.075256 417.538116,515.088989 409.369080,517.203247 
	C409.369080,546.433960 409.369080,575.487793 409.369080,604.476318 
	C416.822662,604.476318 423.902344,604.476318 431.338043,604.476318 
	C431.338043,588.820984 431.281616,573.506348 431.356049,558.192322 
	C431.414886,546.093018 438.146301,539.410522 450.284943,539.268860 
	C456.070404,539.201294 461.857269,539.257202 467.753174,539.257202 
	C467.753174,531.577271 467.753174,524.385498 467.753174,516.998047 
	C465.396606,516.998047 463.410767,516.998047 460.441254,516.998047 
M865.530579,544.012695 
	C869.387146,540.303772 874.152039,539.237915 879.300842,539.252075 
	C885.076294,539.267944 890.851807,539.255737 896.684814,539.255737 
	C896.684814,531.543701 896.684814,524.349915 896.684814,517.075684 
	C880.435181,517.092529 864.049377,514.591370 851.246521,526.911438 
	C846.261475,524.080383 846.456177,515.186279 838.301392,517.200012 
	C838.301392,546.419617 838.301392,575.453796 838.301392,604.495850 
	C845.723389,604.495850 852.794861,604.495850 860.224487,604.495850 
	C860.224487,588.877075 860.266418,573.579590 860.201294,558.282593 
	C860.179138,553.084167 861.396729,548.412476 865.530579,544.012695 
z"/>
<path fill="#F7A22C" opacity="1.000000" stroke="none" 
	d="
M232.005127,532.010437 
	C231.624603,534.793274 231.244095,537.576050 230.311615,540.679199 
	C221.598389,542.154724 212.926773,541.927612 205.369202,544.717957 
	C180.281799,553.980286 166.037308,581.798340 171.420822,608.330994 
	C176.678528,634.243652 199.427368,655.526733 229.441864,653.117004 
	C230.312958,658.457581 231.184052,663.798218 231.741882,669.725769 
	C197.512161,705.203308 183.103195,746.880859 190.374588,794.970093 
	C199.542542,855.602234 247.559006,904.375854 308.213806,915.831177 
	C338.898132,921.626221 369.977570,918.334595 400.894257,918.599548 
	C401.044159,918.600830 401.195221,918.465759 401.345734,918.394348 
	C405.106262,920.714661 408.866821,923.034973 412.378540,925.652832 
	C386.815094,925.980957 361.500427,925.992554 336.185974,926.076965 
	C334.069855,926.084045 331.955414,926.581909 329.840179,926.851807 
	C308.764465,925.426453 288.468811,920.652100 269.380646,911.607056 
	C255.930847,905.233765 243.614059,897.005127 232.382431,887.077332 
	C220.267365,876.368652 210.063248,864.179443 201.823944,850.341003 
	C192.315552,834.371216 185.187363,817.360474 183.127350,798.807678 
	C181.636871,785.384033 181.348663,771.796997 181.155045,758.273743 
	C181.075058,752.686462 182.644485,747.075500 183.481400,741.354614 
	C166.147247,736.636353 149.980026,729.273743 135.201141,719.033386 
	C114.837929,704.923645 98.576721,687.172058 86.531029,665.351379 
	C77.397369,648.805725 71.665428,631.232788 69.199875,612.729309 
	C66.448792,592.082886 68.062355,571.604370 73.727661,551.370117 
	C78.815903,533.196838 87.344902,516.883972 98.088348,501.595367 
	C100.432549,498.259460 103.431709,495.383759 106.715500,491.926453 
	C107.554733,490.893066 107.807716,490.229340 108.060707,489.565613 
	C108.027794,489.342896 108.110657,489.178558 108.750458,488.947205 
	C109.459976,488.519714 109.728340,488.217651 109.996696,487.915558 
	C109.996696,487.915558 109.991417,487.991638 110.211517,487.904297 
	C110.617004,487.516724 110.802399,487.216553 110.987793,486.916351 
	C110.987793,486.916351 110.988831,486.989075 111.206299,486.897461 
	C111.612671,486.509796 111.801567,486.213684 111.990463,485.917572 
	C111.990448,485.917572 111.991043,485.991211 112.206406,485.896759 
	C112.611923,485.507507 112.802071,485.212738 112.992218,484.917969 
	C112.992226,484.917969 112.994171,484.993805 113.202499,484.890869 
	C113.605713,484.497955 113.800591,484.207947 113.995468,483.917969 
	C113.995461,483.917969 113.995796,483.995667 114.203339,483.892029 
	C114.604942,483.497772 114.799004,483.207153 114.993073,482.916504 
	C114.993073,482.916504 114.990898,482.990326 115.213638,482.905243 
	C115.618607,482.518494 115.800827,482.216797 115.983063,481.915131 
	C115.983063,481.915131 115.985016,481.984955 116.212799,481.906921 
	C116.620758,481.525177 116.800919,481.221527 116.981079,480.917847 
	C116.981087,480.917847 116.984947,480.985077 117.225296,480.921814 
	C117.634285,480.543488 117.802917,480.228455 117.971550,479.913422 
	C117.971558,479.913422 117.983406,479.978760 118.277756,479.966492 
	C119.062080,479.538208 119.552055,479.122131 120.042038,478.706055 
	C128.462784,472.435120 136.426056,465.382507 145.432236,460.111938 
	C154.538300,454.782928 164.425278,450.445221 174.459991,447.177368 
	C180.303345,445.274445 181.418243,442.829620 181.094391,437.351227 
	C179.805740,415.551636 182.711319,394.327118 190.907623,373.946350 
	C196.680237,359.592285 204.263947,346.408875 213.969360,334.247406 
	C224.188614,321.442047 236.131744,310.816498 249.608948,301.679352 
	C268.403381,288.937317 289.271210,281.442291 311.357391,277.097839 
	C316.154938,276.154114 321.171906,276.325562 326.992310,275.976807 
	C356.277863,276.016541 384.658936,276.062866 413.039978,276.109192 
	C409.312988,278.501617 405.585999,280.894043 401.202698,283.260376 
	C379.569824,283.182556 358.593292,283.092163 337.616760,283.092316 
	C323.045197,283.092407 308.765747,285.274841 294.810852,289.420441 
	C227.067276,309.544952 179.747604,374.953949 189.979889,449.025177 
	C194.457092,481.435547 208.612656,509.100861 232.005127,532.010437 
M159.931900,461.343475 
	C109.287865,487.471405 79.772255,528.452148 76.373192,585.669495 
	C72.412575,652.339539 116.454170,712.791199 180.830078,732.083252 
	C186.470963,733.773743 186.470978,733.773682 187.387207,727.945984 
	C126.161362,706.764771 87.723923,665.661743 84.966652,599.883301 
	C82.025475,529.717529 119.600578,484.511597 184.094269,459.631897 
	C183.658875,457.551910 183.172699,455.229370 182.534073,452.178467 
	C174.761124,455.322662 167.690460,458.182800 159.931900,461.343475 
M190.789429,719.159363 
	C191.382614,717.509766 191.975800,715.860168 192.522354,714.340271 
	C137.887177,695.650085 103.670074,659.336670 100.674187,601.214111 
	C97.438980,538.448303 130.626465,497.716064 188.095337,475.028961 
	C187.398666,472.816925 186.663040,470.481171 185.922363,468.129425 
	C185.082397,468.234070 184.591415,468.230255 184.139221,468.360809 
	C134.395691,482.722595 94.879013,531.580811 92.205643,583.334961 
	C89.409416,637.467468 111.801186,678.876770 158.133987,706.751038 
	C167.905167,712.629456 179.491928,715.490051 190.789429,719.159363 
M157.508011,509.995270 
	C168.438004,501.329407 180.787323,495.299805 194.083466,490.809998 
	C192.889938,487.984406 191.867111,485.562927 190.763474,482.950104 
	C189.723495,483.251099 188.954544,483.457001 188.195877,483.695648 
	C140.505371,498.695770 107.411591,544.051575 107.510300,594.273071 
	C107.610329,645.167358 141.097687,690.208252 189.900177,705.088501 
	C196.700714,707.161987 196.700729,707.161926 198.832886,700.474060 
	C111.527275,678.096802 85.332924,568.195251 157.508011,509.995270 
M134.398300,572.029724 
	C144.324875,537.565369 167.002136,515.654236 201.202774,504.734283 
	C199.890060,502.339417 198.721771,500.208069 197.580475,498.125916 
	C196.807266,498.191772 196.300735,498.155701 195.840881,498.285278 
	C154.810516,509.847595 124.109787,549.556824 123.161522,592.272888 
	C122.133461,638.583191 153.086945,679.495056 198.510056,692.296448 
	C203.582718,693.726074 205.365387,691.913147 206.639069,687.603455 
	C203.787613,686.834045 201.213120,686.193115 198.670044,685.445312 
	C153.621979,672.198303 121.655510,625.352600 134.398300,572.029724 
M147.451447,632.981506 
	C160.151215,657.956604 180.178314,673.516052 207.416824,680.046265 
	C212.473282,681.258606 214.587387,679.142944 216.110214,674.886047 
	C171.019684,667.340454 148.676147,632.163635 147.520813,602.704956 
	C145.783844,558.415039 168.630661,531.443726 209.867416,518.540100 
	C205.738403,511.250061 205.738403,511.250061 198.091309,513.794434 
	C148.934464,530.150024 125.748009,584.054871 147.451447,632.981506 
M205.806747,657.873291 
	C179.679535,648.055298 162.555374,625.330933 163.104385,598.663208 
	C163.886963,560.649841 184.467163,539.171326 221.788696,532.552185 
	C218.521225,529.565125 217.331787,525.057861 210.988068,526.523193 
	C175.671783,534.680603 152.837540,565.215576 154.940979,602.290588 
	C156.800156,635.060120 185.152771,664.093994 217.819351,667.230103 
	C223.402863,667.766113 226.416733,665.572266 228.999680,661.844788 
	C221.487701,660.573669 214.036972,659.312866 205.806747,657.873291 
z"/>
<path fill="#F7A22C" opacity="1.000000" stroke="none" 
	d="
M788.958801,925.864502 
	C792.694031,923.487000 796.429260,921.109436 800.824036,918.754272 
	C822.458801,918.825073 843.436707,919.085876 864.407837,918.818054 
	C872.861633,918.710083 881.407166,918.057861 889.729797,916.611206 
	C967.018188,903.176331 1023.467712,832.845886 1011.897461,751.950378 
	C1007.322266,719.962158 993.143372,692.593506 969.978149,669.964783 
	C970.734863,664.573486 971.491638,659.182190 972.877686,653.496826 
	C977.817139,652.984558 982.221252,653.263367 986.422241,652.468384 
	C1016.378845,646.799866 1035.420166,619.394165 1030.844849,588.043762 
	C1026.845581,560.640686 1002.756836,537.904663 971.351746,541.159119 
	C970.880310,538.392395 970.408875,535.625610 970.249817,532.272217 
	C1005.269531,495.714142 1019.498596,453.061432 1010.990723,403.659607 
	C1000.020447,339.960327 945.593262,289.998596 879.617432,284.300415 
	C853.496216,282.044434 827.058044,283.457489 800.764221,283.199982 
	C796.975952,281.006470 793.187744,278.812927 789.644531,276.319458 
	C818.272522,275.973785 846.655457,275.928070 875.038391,275.882355 
	C876.943787,276.256683 878.858826,276.997742 880.753052,276.947937 
	C897.263489,276.513733 912.353271,282.114624 927.277588,288.064423 
	C944.553772,294.951813 959.842468,305.273560 973.151306,318.106262 
	C984.561035,329.107666 994.700317,341.243103 1002.339478,355.446106 
	C1011.828430,373.088165 1018.340454,391.524689 1019.941711,411.494751 
	C1020.747925,421.548859 1020.669189,431.673798 1020.997742,441.766479 
	C1021.040039,443.066315 1021.125122,444.364777 1021.161987,445.099152 
	C1043.149780,451.028564 1062.412598,461.271942 1079.246094,475.781433 
	C1105.808960,498.677032 1124.030273,527.035706 1130.921997,561.613770 
	C1147.060791,642.587708 1098.825806,719.163086 1019.510437,741.270569 
	C1020.020874,754.201111 1020.862915,766.807495 1020.936096,779.418396 
	C1021.048218,798.732056 1015.849243,816.892578 1008.261475,834.544006 
	C1001.368225,850.579834 991.836365,864.935486 979.860229,877.345642 
	C956.055969,902.012634 927.315125,918.146118 893.244141,924.035583 
	C886.517395,925.198364 879.730347,926.012390 872.183105,926.712524 
	C869.242554,926.305969 867.090332,926.066040 864.937378,926.058838 
	C839.611267,925.973877 814.285034,925.923767 788.958801,925.864502 
M1096.041260,667.516602 
	C1076.363159,697.813538 1048.780884,717.443542 1014.102112,727.543945 
	C1014.788452,729.720581 1015.319153,731.403687 1015.836792,733.045410 
	C1065.176880,722.228882 1126.276367,671.459106 1125.909546,591.733765 
	C1125.739990,554.881958 1112.676514,522.730042 1087.947632,495.476074 
	C1069.222534,474.838959 1046.352051,460.685059 1019.210083,452.616852 
	C1018.730713,455.629761 1018.353088,458.003082 1017.989380,460.288605 
	C1109.139282,489.364136 1144.148438,591.214355 1096.041260,667.516602 
M1104.155640,632.629150 
	C1127.766846,556.506287 1079.428223,485.606323 1016.156006,468.171906 
	C1015.733154,469.377533 1015.250916,470.587708 1014.888428,471.832825 
	C1014.532837,473.053802 1014.299072,474.310242 1014.062317,475.333160 
	C1065.789551,494.876312 1098.431885,530.640686 1101.265747,586.284058 
	C1104.594482,651.638855 1069.806763,692.919250 1009.494751,714.590637 
	C1009.921753,715.763245 1010.341614,717.012878 1010.836121,718.232117 
	C1011.072266,718.814392 1011.450195,719.339233 1012.042175,720.378540 
	C1057.201904,706.536377 1088.333252,678.229553 1104.155640,632.629150 
M1051.001709,515.488586 
	C1071.209229,534.299683 1083.340210,557.349976 1085.807373,584.870667 
	C1090.381104,635.891479 1058.926392,682.419373 1009.879211,698.098267 
	C1007.562622,698.838867 1005.260254,699.623840 1002.937256,700.392761 
	C1005.559265,707.046692 1005.615845,707.213379 1011.430054,705.239197 
	C1058.572754,689.231750 1087.632324,656.844910 1093.383301,607.374207 
	C1099.114380,558.074951 1078.408203,519.885742 1036.180786,493.820526 
	C1028.549561,489.110138 1019.881348,486.079834 1011.475830,482.173431 
	C1010.018005,485.781403 1009.047302,488.183777 1007.946045,490.909241 
	C1024.002686,496.105927 1038.182251,503.928070 1051.001709,515.488586 
M1040.518311,526.975586 
	C1097.281616,580.486633 1069.159058,673.101074 995.279358,688.001160 
	C996.770752,691.031860 997.599121,693.844238 1002.405518,692.609436 
	C1069.743530,675.309387 1100.313354,597.231873 1062.011353,539.788513 
	C1048.094238,518.916321 1028.808960,505.191681 1004.606628,497.780487 
	C1003.290283,500.165405 1002.109924,502.304108 1000.704407,504.850647 
	C1015.609253,509.284088 1028.764282,516.185120 1040.518311,526.975586 
M1022.617798,532.864441 
	C1045.293457,550.284180 1057.120361,573.439026 1054.441895,601.816101 
	C1050.537720,643.176025 1025.698486,666.601196 985.830383,675.084961 
	C987.684875,680.127930 990.807129,680.979980 995.682556,679.863037 
	C1032.766846,671.366943 1061.111450,638.356506 1062.933228,601.193542 
	C1064.895386,561.168884 1041.011475,525.983459 1003.520020,513.666931 
	C995.757141,511.116699 995.564209,511.205170 992.805664,517.675598 
	C1002.607788,522.619446 1012.328369,527.522217 1022.617798,532.864441 
M1018.431458,539.039795 
	C1009.897644,535.040955 1001.571289,530.481812 992.764038,527.221680 
	C985.801392,524.644348 984.292847,525.972839 980.696228,533.306946 
	C996.507446,534.557739 1010.070923,540.644592 1021.026428,552.034729 
	C1032.077759,563.524597 1038.092651,577.362122 1038.962524,593.263489 
	C1039.987671,612.002136 1034.089355,628.419067 1021.142639,642.025635 
	C1008.077271,655.756897 991.567444,661.499512 972.641724,661.020447 
	C976.323853,668.318909 982.071350,667.852539 987.973999,666.615540 
	C1017.584045,660.409546 1037.573486,643.108887 1044.931641,613.673767 
	C1052.391968,583.829834 1042.818481,558.906799 1018.431458,539.039795 
z"/>
<path fill="#FAC67D" opacity="1.000000" stroke="none" 
	d="
M874.816650,275.510284 
	C846.655457,275.928070 818.272522,275.973785 789.422485,276.066193 
	C788.617981,275.955231 788.280579,275.797546 787.793762,275.399597 
	C816.627930,275.152252 845.611389,275.145233 874.816650,275.510284 
z"/>
<path fill="#FAC67D" opacity="1.000000" stroke="none" 
	d="
M413.309540,276.030151 
	C384.658936,276.062866 356.277863,276.016541 327.429016,275.926697 
	C328.313599,275.587585 329.665527,275.036285 331.018341,275.034210 
	C358.461761,274.991943 385.905334,275.012604 413.842712,275.088837 
	C414.084106,275.421692 413.831604,275.686401 413.309540,276.030151 
z"/>
<path fill="#F9C275" opacity="1.000000" stroke="none" 
	d="
M330.322205,926.913818 
	C331.955414,926.581909 334.069855,926.084045 336.185974,926.076965 
	C361.500427,925.992554 386.815094,925.980957 412.598267,925.906250 
	C413.405792,926.026794 413.744720,926.191406 414.233643,926.599609 
	C386.523804,926.887451 358.664032,926.931641 330.322205,926.913818 
z"/>
<path fill="#F9C275" opacity="1.000000" stroke="none" 
	d="
M788.679504,925.947571 
	C814.285034,925.923767 839.611267,925.973877 864.937378,926.058838 
	C867.090332,926.066040 869.242554,926.305969 871.769287,926.644714 
	C844.296509,926.896973 816.449585,926.942383 788.104126,926.917236 
	C787.870483,926.574707 788.135376,926.302673 788.679504,925.947571 
z"/>
<path fill="#F9C275" opacity="1.000000" stroke="none" 
	d="
M119.726311,478.836792 
	C119.552055,479.122131 119.062080,479.538208 118.246201,479.956146 
	C118.417061,479.627869 118.913818,479.297699 119.726311,478.836792 
z"/>
<path fill="#F9C275" opacity="1.000000" stroke="none" 
	d="
M107.751205,489.775208 
	C107.807716,490.229340 107.554733,490.893066 107.014381,491.798279 
	C106.965240,491.354736 107.203476,490.669769 107.751205,489.775208 
z"/>
<path fill="#F9C275" opacity="1.000000" stroke="none" 
	d="
M117.702042,479.978210 
	C117.802917,480.228455 117.634285,480.543488 117.191910,480.917480 
	C117.089630,480.665253 117.261086,480.354095 117.702042,479.978210 
z"/>
<path fill="#F9C275" opacity="1.000000" stroke="none" 
	d="
M116.707962,480.979126 
	C116.800919,481.221527 116.620758,481.525177 116.177902,481.905670 
	C116.088425,481.668457 116.261635,481.354431 116.707962,480.979126 
z"/>
<path fill="#F9C275" opacity="1.000000" stroke="none" 
	d="
M115.709061,481.977722 
	C115.800827,482.216797 115.618607,482.518494 115.176743,482.903839 
	C115.089760,482.671753 115.262413,482.356018 115.709061,481.977722 
z"/>
<path fill="#F9C275" opacity="1.000000" stroke="none" 
	d="
M114.719666,482.983154 
	C114.799004,483.207153 114.604942,483.497772 114.164474,483.892090 
	C114.094131,483.680450 114.270187,483.365112 114.719666,482.983154 
z"/>
<path fill="#F9C275" opacity="1.000000" stroke="none" 
	d="
M113.721588,483.983582 
	C113.800591,484.207947 113.605713,484.497955 113.164581,484.891663 
	C113.094788,484.679962 113.271248,484.364563 113.721588,483.983582 
z"/>
<path fill="#F9C275" opacity="1.000000" stroke="none" 
	d="
M112.718384,484.982056 
	C112.802071,485.212738 112.611923,485.507507 112.169586,485.896790 
	C112.093109,485.676208 112.268822,485.361206 112.718384,484.982056 
z"/>
<path fill="#F9C275" opacity="1.000000" stroke="none" 
	d="
M111.716263,485.980621 
	C111.801567,486.213684 111.612671,486.509796 111.169937,486.897644 
	C111.091431,486.674164 111.266747,486.358917 111.716263,485.980621 
z"/>
<path fill="#F9C275" opacity="1.000000" stroke="none" 
	d="
M110.713791,486.978699 
	C110.802399,487.216553 110.617004,487.516724 110.173500,487.901337 
	C110.090187,487.670868 110.264984,487.355957 110.713791,486.978699 
z"/>
<path fill="#F9C275" opacity="1.000000" stroke="none" 
	d="
M109.693787,487.995392 
	C109.728340,488.217651 109.459976,488.519714 108.896103,488.933105 
	C108.864029,488.721344 109.127457,488.398285 109.693787,487.995392 
z"/>
<path fill="#FFFCFD" opacity="1.000000" stroke="none" 
	d="
M596.365784,514.171875 
	C612.894531,512.606873 616.486633,513.792175 635.483032,526.836426 
	C640.541931,524.309753 641.043335,515.477356 649.452698,517.258179 
	C649.452698,546.269409 649.452698,575.281494 649.452698,604.625671 
	C640.419861,605.925598 640.716553,596.263000 635.268066,593.213196 
	C633.430237,594.609924 631.397095,596.269836 629.251404,597.768433 
	C600.355774,617.949402 563.275879,600.664368 560.115540,565.554993 
	C557.818665,540.037903 571.323730,520.697510 596.365784,514.171875 
M627.067139,561.324463 
	C626.986511,549.603455 620.717529,540.307495 610.694885,537.046936 
	C602.248596,534.299194 592.299683,537.519836 587.079346,544.691589 
	C581.302856,552.627441 580.770203,567.148865 586.953857,574.798645 
	C589.803711,578.324219 594.171143,581.505920 598.468445,582.815918 
	C612.287720,587.028259 624.667908,577.738770 627.067139,561.324463 
z"/>
<path fill="#FFFCFD" opacity="1.000000" stroke="none" 
	d="
M365.924316,509.788300 
	C348.550934,506.495392 331.976410,514.772034 324.424194,530.212219 
	C317.103577,545.178894 320.817230,563.245117 333.493134,574.330383 
	C348.287415,587.268188 364.600098,586.821777 385.550293,572.709351 
	C389.507141,579.220215 393.455994,585.718018 397.376343,592.168823 
	C379.813568,610.041687 342.293793,614.910156 316.580414,590.746216 
	C291.426941,567.108337 290.850006,527.518860 315.392731,503.106964 
	C340.754242,477.880615 378.737061,481.990082 397.397766,500.407501 
	C393.511963,506.840759 389.577576,513.354431 386.124359,519.071533 
	C379.345551,515.922363 372.842682,512.901367 365.924316,509.788300 
z"/>
<path fill="#FFFCFD" opacity="1.000000" stroke="none" 
	d="
M474.557983,544.690186 
	C480.304626,527.435059 492.001312,517.175476 509.345581,514.223999 
	C527.496155,511.135284 542.314697,517.612488 554.038879,532.493713 
	C540.161072,549.219788 526.328003,565.891907 512.342224,582.748108 
	C521.940369,585.836548 530.509094,581.802063 537.160828,571.795105 
	C542.513977,577.049561 547.924316,582.360168 553.375610,587.710876 
	C543.701111,602.231018 524.754883,609.334839 506.557098,605.087280 
	C488.958984,600.979614 474.898651,586.078491 473.195770,568.283142 
	C472.465271,560.649536 473.928558,552.805908 474.557983,544.690186 
M499.048401,545.654602 
	C494.067291,553.755127 493.998840,562.196228 497.273682,571.870422 
	C506.192078,559.983276 514.622437,548.746643 523.127075,537.410950 
	C514.624451,534.250916 506.421478,536.998413 499.048401,545.654602 
z"/>
<path fill="#FFFDFD" opacity="1.000000" stroke="none" 
	d="
M751.501099,595.521973 
	C730.126221,575.343567 730.623535,540.616028 752.573792,523.401794 
	C767.466309,511.722443 784.078247,510.126373 800.916931,518.308716 
	C818.105530,526.661133 825.502930,541.645081 825.322144,560.291504 
	C825.138489,579.237671 816.770142,593.849976 799.455139,601.984680 
	C782.573425,609.915833 766.410950,607.430481 751.501099,595.521973 
M799.158203,573.521301 
	C806.030457,560.815430 802.788208,545.568604 791.857056,539.187439 
	C781.628784,533.216614 768.501343,536.155090 762.352051,545.791931 
	C755.265015,556.898315 757.923828,572.629395 768.101685,579.809448 
	C778.243958,586.964417 790.621277,584.689941 799.158203,573.521301 
z"/>
<path fill="#FFFDFE" opacity="1.000000" stroke="none" 
	d="
M727.955750,523.112305 
	C727.955750,528.569641 727.955750,533.542297 727.955750,539.090942 
	C716.649719,539.090942 705.607788,539.090942 694.228699,539.090942 
	C694.228699,549.415649 693.671082,559.210815 694.412354,568.906616 
	C694.964355,576.126526 701.890869,581.728638 709.253845,582.111389 
	C715.210876,582.421082 721.196838,582.174133 727.561096,582.174133 
	C727.561096,589.822083 727.561096,597.016663 727.561096,604.669678 
	C715.000671,604.757446 702.313599,606.405151 690.833435,599.150330 
	C679.034302,591.693848 672.318909,581.166626 671.874084,567.100464 
	C671.590332,558.127075 671.820923,549.137451 671.820923,539.548584 
	C668.147278,539.548584 664.768127,539.548584 661.056396,539.548584 
	C661.056396,531.865417 661.056396,524.778198 661.056396,517.176392 
	C664.307617,517.176392 667.716492,517.176392 671.610229,517.176392 
	C671.610229,505.274567 671.610229,493.871521 671.610229,482.173157 
	C679.169556,482.173157 686.247253,482.173157 693.770935,482.173157 
	C693.770935,493.548065 693.770935,504.954987 693.770935,516.843262 
	C705.256165,516.843262 716.316406,516.843262 727.955750,516.843262 
	C727.955750,519.090332 727.955750,520.859009 727.955750,523.112305 
z"/>
<path fill="#FFFCF8" opacity="1.000000" stroke="none" 
	d="
M969.778564,670.284851 
	C993.143372,692.593506 1007.322266,719.962158 1011.897461,751.950378 
	C1023.467712,832.845886 967.018188,903.176331 889.729797,916.611206 
	C881.407166,918.057861 872.861633,918.710083 864.407837,918.818054 
	C843.436707,919.085876 822.458801,918.825073 801.085999,918.597778 
	C803.971191,916.322571 807.254028,914.226135 811.319763,912.086792 
	C829.418701,912.053406 846.737976,912.263733 864.049438,911.984375 
	C872.172119,911.853333 880.360474,911.298828 888.381470,910.051270 
	C967.115845,897.805237 1019.639709,820.287354 1001.761047,742.690125 
	C996.238159,718.719727 985.277649,697.498840 968.019714,679.735962 
	C968.539490,676.692261 969.059326,673.648621 969.778564,670.284851 
z"/>
<path fill="#FFFCF8" opacity="1.000000" stroke="none" 
	d="
M800.960327,283.475952 
	C827.058044,283.457489 853.496216,282.044434 879.617432,284.300415 
	C945.593262,289.998596 1000.020447,339.960327 1010.990723,403.659607 
	C1019.498596,453.061432 1005.269531,495.714142 970.271912,531.852783 
	C969.319519,529.024841 968.657349,526.029785 968.310547,522.470581 
	C1004.080200,481.486389 1015.074585,435.041290 997.530090,384.381134 
	C978.629089,329.804077 938.445801,298.292786 881.105530,291.278687 
	C858.118774,288.466827 834.555115,290.371063 811.254028,290.128723 
	C807.888184,288.003113 804.522339,285.877502 800.960327,283.475952 
z"/>
<path fill="#FFFCF8" opacity="1.000000" stroke="none" 
	d="
M232.196350,531.682495 
	C208.612656,509.100861 194.457092,481.435547 189.979889,449.025177 
	C179.747604,374.953949 227.067276,309.544952 294.810852,289.420441 
	C308.765747,285.274841 323.045197,283.092407 337.616760,283.092316 
	C358.593292,283.092163 379.569824,283.182556 400.943298,283.421143 
	C398.033203,285.706573 394.726227,287.805084 390.635010,289.947083 
	C372.202606,289.982391 354.551758,289.793060 336.907471,290.050446 
	C329.283997,290.161621 321.598419,290.711243 314.069427,291.885223 
	C234.822266,304.241974 182.444229,381.215851 200.225342,459.308868 
	C205.685287,483.288361 216.690094,504.503510 233.967957,522.251282 
	C233.441177,525.285706 232.914383,528.320068 232.196350,531.682495 
z"/>
<path fill="#FFFCF8" opacity="1.000000" stroke="none" 
	d="
M401.004395,918.216431 
	C401.195221,918.465759 401.044159,918.600830 400.894257,918.599548 
	C369.977570,918.334595 338.898132,921.626221 308.213806,915.831177 
	C247.559006,904.375854 199.542542,855.602234 190.374588,794.970093 
	C183.103195,746.880859 197.512161,705.203308 231.720093,670.148499 
	C232.674500,672.975342 233.337418,675.966492 233.684052,679.521362 
	C202.918854,714.033936 191.682053,753.585022 199.048981,798.464294 
	C208.568436,856.456604 261.386871,906.182312 319.898926,910.804077 
	C343.409363,912.661255 367.148682,911.621338 390.783813,911.900024 
	C394.076874,913.946167 397.369965,915.992310 401.004395,918.216431 
z"/>
<path fill="#FFFEFE" opacity="1.000000" stroke="none" 
	d="
M460.933105,516.998047 
	C463.410767,516.998047 465.396606,516.998047 467.753174,516.998047 
	C467.753174,524.385498 467.753174,531.577271 467.753174,539.257202 
	C461.857269,539.257202 456.070404,539.201294 450.284943,539.268860 
	C438.146301,539.410522 431.414886,546.093018 431.356049,558.192322 
	C431.281616,573.506348 431.338043,588.820984 431.338043,604.476318 
	C423.902344,604.476318 416.822662,604.476318 409.369080,604.476318 
	C409.369080,575.487793 409.369080,546.433960 409.369080,517.203247 
	C417.538116,515.088989 417.300781,524.075256 422.330627,526.893738 
	C432.990845,516.738037 446.614075,516.462830 460.933105,516.998047 
z"/>
<path fill="#FFFEFE" opacity="1.000000" stroke="none" 
	d="
M865.270874,544.272156 
	C861.396729,548.412476 860.179138,553.084167 860.201294,558.282593 
	C860.266418,573.579590 860.224487,588.877075 860.224487,604.495850 
	C852.794861,604.495850 845.723389,604.495850 838.301392,604.495850 
	C838.301392,575.453796 838.301392,546.419617 838.301392,517.200012 
	C846.456177,515.186279 846.261475,524.080383 851.246521,526.911438 
	C864.049377,514.591370 880.435181,517.092529 896.684814,517.075684 
	C896.684814,524.349915 896.684814,531.543701 896.684814,539.255737 
	C890.851807,539.255737 885.076294,539.267944 879.300842,539.252075 
	C874.152039,539.237915 869.387146,540.303772 865.270874,544.272156 
z"/>
<path fill="#F7A12A" opacity="1.000000" stroke="none" 
	d="
M390.597473,911.644653 
	C367.148682,911.621338 343.409363,912.661255 319.898926,910.804077 
	C261.386871,906.182312 208.568436,856.456604 199.048981,798.464294 
	C191.682053,753.585022 202.918854,714.033936 233.669464,679.912231 
	C234.657135,682.464355 235.343109,685.189392 235.714417,688.479248 
	C215.597855,712.374329 204.532242,739.428223 204.420898,769.917908 
	C204.219864,824.969604 229.553467,865.299011 278.075470,890.960388 
	C310.408813,908.060303 345.539886,904.953125 380.278656,904.254272 
	C383.656128,906.632690 387.033600,909.011047 390.597473,911.644653 
z"/>
<path fill="#F7A12A" opacity="1.000000" stroke="none" 
	d="
M234.140533,521.902710 
	C216.690094,504.503510 205.685287,483.288361 200.225342,459.308868 
	C182.444229,381.215851 234.822266,304.241974 314.069427,291.885223 
	C321.598419,290.711243 329.283997,290.161621 336.907471,290.050446 
	C354.551758,289.793060 372.202606,289.982391 390.291382,290.059082 
	C387.430908,292.578064 384.129822,295.028503 380.141174,297.458710 
	C359.986603,297.695953 340.331451,296.304993 321.085815,298.501923 
	C245.699265,307.107513 194.413742,375.169983 206.113678,450.172394 
	C209.831818,474.007538 219.753098,495.236298 235.991058,513.311462 
	C235.431732,516.059021 234.872406,518.806519 234.140533,521.902710 
z"/>
<path fill="#F7A12A" opacity="1.000000" stroke="none" 
	d="
M967.842529,680.082764 
	C985.277649,697.498840 996.238159,718.719727 1001.761047,742.690125 
	C1019.639709,820.287354 967.115845,897.805237 888.381470,910.051270 
	C880.360474,911.298828 872.172119,911.853333 864.049438,911.984375 
	C846.737976,912.263733 829.418701,912.053406 811.657837,911.971436 
	C814.531921,909.432190 817.850769,906.965271 821.860352,904.527466 
	C842.016052,904.295715 861.676758,905.715698 880.911682,903.477112 
	C956.259644,894.708069 1007.234070,827.283508 995.927429,752.299133 
	C992.302734,728.260193 982.313965,706.890442 965.994202,688.660645 
	C966.551208,685.916931 967.108276,683.173279 967.842529,680.082764 
z"/>
<path fill="#F7A12A" opacity="1.000000" stroke="none" 
	d="
M811.439697,290.379822 
	C834.555115,290.371063 858.118774,288.466827 881.105530,291.278687 
	C938.445801,298.292786 978.629089,329.804077 997.530090,384.381134 
	C1015.074585,435.041290 1004.080200,481.486389 968.324219,522.078979 
	C967.334534,519.530884 966.646606,516.810425 966.270508,513.521729 
	C986.380920,489.627716 997.467224,462.579041 997.579773,432.095764 
	C997.782898,377.061981 972.467346,336.725922 923.966858,311.038940 
	C891.636292,293.915924 856.506348,297.073578 821.775574,297.735535 
	C818.392151,295.367340 815.008789,292.999115 811.439697,290.379822 
z"/>
<path fill="#FFFEFD" opacity="1.000000" stroke="none" 
	d="
M974.221008,638.989136 
	C974.490479,617.536499 974.874756,596.084351 974.951721,574.630981 
	C974.971985,568.994263 974.040344,563.354004 974.038086,557.216064 
	C998.287537,557.071655 1016.098572,574.935242 1015.914124,598.222595 
	C1015.732544,621.147888 997.513672,638.961792 974.221008,638.989136 
z"/>
<path fill="#FFFEFD" opacity="1.000000" stroke="none" 
	d="
M228.381302,556.763733 
	C226.149734,580.387512 225.022003,604.033264 226.978851,627.739624 
	C227.264984,631.205994 227.571762,634.670715 227.397247,638.562622 
	C203.695953,638.663452 185.713379,620.211914 186.091782,597.090332 
	C186.470520,573.947449 204.798340,556.470398 228.381302,556.763733 
z"/>
<path fill="#FFFBF6" opacity="1.000000" stroke="none" 
	d="
M236.204132,512.978394 
	C219.753098,495.236298 209.831818,474.007538 206.113678,450.172394 
	C194.413742,375.169983 245.699265,307.107513 321.085815,298.501923 
	C340.331451,296.304993 359.986603,297.695953 379.858459,297.589783 
	C377.478882,299.821503 374.694427,301.901917 371.107178,304.046204 
	C359.307098,304.099640 348.309784,304.074036 337.312500,304.081177 
	C268.941650,304.125580 213.738617,358.096710 212.594543,426.402985 
	C212.115219,455.021362 220.800720,480.796844 238.664459,503.330475 
	C237.915359,506.435425 237.166275,509.540375 236.204132,512.978394 
z"/>
<path fill="#FFFBF7" opacity="1.000000" stroke="none" 
	d="
M822.079590,297.937500 
	C856.506348,297.073578 891.636292,293.915924 923.966858,311.038940 
	C972.467346,336.725922 997.782898,377.061981 997.579773,432.095764 
	C997.467224,462.579041 986.380920,489.627716 966.288025,513.141479 
	C965.121155,510.259766 964.248535,507.190033 963.641235,503.465637 
	C1018.101318,433.171448 981.864380,329.640564 895.807129,307.968353 
	C874.309021,302.554413 852.495728,304.365753 830.747681,304.222321 
	C827.959656,302.194702 825.171570,300.167084 822.079590,297.937500 
z"/>
<path fill="#FFFBF7" opacity="1.000000" stroke="none" 
	d="
M965.773071,688.990601 
	C982.313965,706.890442 992.302734,728.260193 995.927429,752.299133 
	C1007.234070,827.283508 956.259644,894.708069 880.911682,903.477112 
	C861.676758,905.715698 842.016052,904.295715 822.147339,904.400391 
	C824.524414,902.166809 827.305054,900.089417 830.889648,897.951050 
	C848.337830,897.527283 865.179626,898.677002 881.591064,896.532715 
	C943.419861,888.454407 988.527710,837.340393 989.417786,775.083801 
	C989.823914,746.676636 981.119568,721.033875 963.314270,698.674133 
	C964.060120,695.556274 964.806030,692.438354 965.773071,688.990601 
z"/>
<path fill="#FFFBF7" opacity="1.000000" stroke="none" 
	d="
M379.980408,904.041138 
	C345.539886,904.953125 310.408813,908.060303 278.075470,890.960388 
	C229.553467,865.299011 204.219864,824.969604 204.420898,769.917908 
	C204.532242,739.428223 215.597855,712.374329 235.695465,688.859619 
	C236.855896,691.733215 237.720596,694.791199 238.329010,698.507812 
	C183.893402,768.980286 220.049988,872.196533 306.249969,894.028381 
	C327.744873,899.472412 349.573212,897.638550 371.328156,897.776794 
	C374.112823,899.793884 376.897461,901.810913 379.980408,904.041138 
z"/>
<path fill="#F7A22C" opacity="1.000000" stroke="none" 
	d="
M963.172852,699.002686 
	C981.119568,721.033875 989.823914,746.676636 989.417786,775.083801 
	C988.527710,837.340393 943.419861,888.454407 881.591064,896.532715 
	C865.179626,898.677002 848.337830,897.527283 831.204773,897.833069 
	C833.748962,895.237061 836.781982,892.697998 840.618103,890.163391 
	C849.244690,890.192078 857.068542,890.267456 864.891785,890.231567 
	C897.444397,890.082153 925.375061,878.497803 948.310425,855.519775 
	C989.711975,814.041077 991.949463,750.946167 960.866699,707.839355 
	C961.588257,705.003296 962.309814,702.167297 963.172852,699.002686 
z"/>
<path fill="#F7A22C" opacity="1.000000" stroke="none" 
	d="
M371.127136,897.499146 
	C349.573212,897.638550 327.744873,899.472412 306.249969,894.028381 
	C220.049988,872.196533 183.893402,768.980286 238.366272,698.910095 
	C239.476669,701.472351 240.293518,704.291077 240.896713,707.761841 
	C206.013062,756.375671 215.928970,825.608643 262.559540,863.805786 
	C291.272980,887.326233 324.663055,892.409790 360.183594,890.062256 
	C360.625580,890.033142 361.041901,889.616577 361.470215,889.380859 
	C364.622192,891.994385 367.774139,894.607910 371.127136,897.499146 
z"/>
<path fill="#F7A22C" opacity="1.000000" stroke="none" 
	d="
M830.937622,304.501404 
	C852.495728,304.365753 874.309021,302.554413 895.807129,307.968353 
	C981.864380,329.640564 1018.101318,433.171448 963.608765,503.059937 
	C962.501038,500.504883 961.691162,497.700867 961.085266,494.236694 
	C1000.952332,437.200226 982.358948,356.657928 916.999329,323.744995 
	C892.613647,311.465240 866.712463,310.886932 840.417542,311.996826 
	C837.320862,309.591370 834.224243,307.185944 830.937622,304.501404 
z"/>
<path fill="#F7A22C" opacity="1.000000" stroke="none" 
	d="
M238.808487,503.001556 
	C220.800720,480.796844 212.115219,455.021362 212.594543,426.402985 
	C213.738617,358.096710 268.941650,304.125580 337.312500,304.081177 
	C348.309784,304.074036 359.307098,304.099640 370.793030,304.167267 
	C368.248016,306.760956 365.214325,309.297546 361.379913,311.833313 
	C352.755768,311.808167 344.931274,311.688416 337.109131,311.775696 
	C298.495453,312.206482 267.136780,327.709229 243.553574,358.123810 
	C212.843536,397.729675 212.047745,456.019714 241.114883,494.114532 
	C240.394104,496.967224 239.673325,499.819946 238.808487,503.001556 
z"/>
<path fill="#FFFCF9" opacity="1.000000" stroke="none" 
	d="
M361.157379,889.166626 
	C361.041901,889.616577 360.625580,890.033142 360.183594,890.062256 
	C324.663055,892.409790 291.272980,887.326233 262.559540,863.805786 
	C215.928970,825.608643 206.013062,756.375671 240.900482,708.139587 
	C242.185013,711.008667 243.252136,714.151978 244.218811,717.997437 
	C210.302643,774.537537 232.653809,842.981384 288.173767,871.364929 
	C309.004791,882.014465 331.203186,884.594116 354.127625,883.605591 
	C356.366608,885.387878 358.605591,887.170105 361.157379,889.166626 
z"/>
<path fill="#FFFCF9" opacity="1.000000" stroke="none" 
	d="
M241.368607,493.853516 
	C212.047745,456.019714 212.843536,397.729675 243.553574,358.123810 
	C267.136780,327.709229 298.495453,312.206482 337.109131,311.775696 
	C344.931274,311.688416 352.755768,311.808167 361.080139,311.915955 
	C359.297058,314.018402 357.013000,316.037384 353.948792,318.199036 
	C336.638763,317.962860 320.293243,318.749878 304.341980,323.914520 
	C236.721100,345.808624 207.049118,424.742432 244.457382,483.511871 
	C243.512360,486.872070 242.567352,490.232269 241.368607,493.853516 
z"/>
<path fill="#FFFCF9" opacity="1.000000" stroke="none" 
	d="
M960.610962,708.106506 
	C991.949463,750.946167 989.711975,814.041077 948.310425,855.519775 
	C925.375061,878.497803 897.444397,890.082153 864.891785,890.231567 
	C857.068542,890.267456 849.244690,890.192078 840.919312,890.085327 
	C842.693237,887.981262 844.968994,885.959717 848.027344,883.797974 
	C858.115234,883.369324 867.529419,883.894470 876.708557,882.664795 
	C956.954651,871.914490 999.338135,786.037781 957.445435,718.111694 
	C958.415405,714.865662 959.385315,711.619690 960.610962,708.106506 
z"/>
<path fill="#FFFCF9" opacity="1.000000" stroke="none" 
	d="
M840.598389,312.308350 
	C866.712463,310.886932 892.613647,311.465240 916.999329,323.744995 
	C982.358948,356.657928 1000.952332,437.200226 961.079041,493.859711 
	C959.795898,490.984131 958.722961,487.825348 957.753662,483.972473 
	C991.628296,427.612183 969.459595,359.100922 913.837280,330.633575 
	C893.010925,319.974701 870.817200,317.406189 847.897888,318.389587 
	C845.524963,316.466339 843.152100,314.543091 840.598389,312.308350 
z"/>
<path fill="#F7A22C" opacity="1.000000" stroke="none" 
	d="
M848.057617,318.666199 
	C870.817200,317.406189 893.010925,319.974701 913.837280,330.633575 
	C969.459595,359.100922 991.628296,427.612183 957.655762,483.575165 
	C956.368958,480.828125 955.283691,477.784271 954.434021,474.158722 
	C960.973694,461.847717 964.874817,449.330627 965.875671,436.086548 
	C969.662903,385.971405 937.712708,341.574432 889.004150,329.260498 
	C878.383118,326.575470 867.576721,324.679138 856.524658,326.679657 
	C853.755554,324.100739 850.986389,321.521790 848.057617,318.666199 
z"/>
<path fill="#F7A22C" opacity="1.000000" stroke="none" 
	d="
M957.283630,718.394897 
	C999.338135,786.037781 956.954651,871.914490 876.708557,882.664795 
	C867.529419,883.894470 858.115234,883.369324 848.331360,883.633057 
	C850.595276,880.972961 853.337830,878.337585 856.669617,875.762085 
	C900.274353,878.717896 942.442566,852.892090 958.604431,812.986877 
	C970.287598,784.139893 969.160278,755.588013 954.156250,727.949951 
	C955.144714,724.859314 956.133240,721.768677 957.283630,718.394897 
z"/>
<path fill="#F7A22C" opacity="1.000000" stroke="none" 
	d="
M244.658905,483.202209 
	C207.049118,424.742432 236.721100,345.808624 304.341980,323.914520 
	C320.293243,318.749878 336.638763,317.962860 353.644928,318.366638 
	C351.384766,321.022430 348.648346,323.653351 345.319366,326.229126 
	C301.574890,323.340302 259.597504,349.047729 243.392120,389.008545 
	C231.694611,417.853424 232.850586,446.405579 247.835571,474.045319 
	C246.843857,476.994385 245.852127,479.943451 244.658905,483.202209 
z"/>
<path fill="#F7A22C" opacity="1.000000" stroke="none" 
	d="
M353.964478,883.327576 
	C331.203186,884.594116 309.004791,882.014465 288.173767,871.364929 
	C232.653809,842.981384 210.302643,774.537537 244.309052,718.393188 
	C245.596344,721.133484 246.692902,724.180115 247.554810,727.807739 
	C236.420563,749.018738 232.991486,770.912781 237.575867,793.702698 
	C247.765945,844.359619 293.000702,878.557556 345.620880,875.876404 
	C348.347687,878.267456 351.074493,880.658508 353.964478,883.327576 
z"/>
<path fill="#FFFCF8" opacity="1.000000" stroke="none" 
	d="
M953.991577,728.279907 
	C969.160278,755.588013 970.287598,784.139893 958.604431,812.986877 
	C942.442566,852.892090 900.274353,878.717896 856.889648,875.566162 
	C858.727356,873.326172 860.934265,871.341858 863.889771,869.270264 
	C902.255493,869.358154 937.039001,846.067444 951.104858,810.844360 
	C960.722839,786.759644 960.816589,762.611511 950.148560,738.701233 
	C951.374695,735.337402 952.600769,731.973572 953.991577,728.279907 
z"/>
<path fill="#FFFCF8" opacity="1.000000" stroke="none" 
	d="
M345.493286,875.597412 
	C293.000702,878.557556 247.765945,844.359619 237.575867,793.702698 
	C232.991486,770.912781 236.420563,749.018738 247.578964,728.163452 
	C249.137192,731.292480 250.436600,734.646729 251.524628,738.609009 
	C239.284775,769.467163 241.179520,798.845154 258.970795,826.106750 
	C277.453674,854.428101 304.134216,869.047913 338.345398,868.996826 
	C340.685516,871.104004 343.025604,873.211182 345.493286,875.597412 
z"/>
<path fill="#FFFCF8" opacity="1.000000" stroke="none" 
	d="
M247.991455,473.711273 
	C232.850586,446.405579 231.694611,417.853424 243.392120,389.008545 
	C259.597504,349.047729 301.574890,323.340302 345.098755,326.423645 
	C343.265259,328.661560 341.059845,330.649811 338.106812,332.727020 
	C299.389771,333.892853 271.169342,351.260315 253.879517,384.855042 
	C240.784317,410.299530 240.242645,436.828552 251.832703,463.297028 
	C250.604248,466.657104 249.375809,470.017151 247.991455,473.711273 
z"/>
<path fill="#FFFCF8" opacity="1.000000" stroke="none" 
	d="
M856.816284,326.905945 
	C867.576721,324.679138 878.383118,326.575470 889.004150,329.260498 
	C937.712708,341.574432 969.662903,385.971405 965.875671,436.086548 
	C964.874817,449.330627 960.973694,461.847717 954.411987,473.800354 
	C952.851501,470.676178 951.548645,467.328613 950.463867,463.373779 
	C962.710571,432.524475 960.813538,403.155640 943.028625,375.899597 
	C924.554382,347.587280 897.898010,332.943237 863.688843,332.998505 
	C861.495239,331.043091 859.301575,329.087677 856.816284,326.905945 
z"/>
<path fill="#FFFCF8" opacity="1.000000" stroke="none" 
	d="
M229.439545,652.645996 
	C199.427368,655.526733 176.678528,634.243652 171.420822,608.330994 
	C166.037308,581.798340 180.281799,553.980286 205.369202,544.717957 
	C212.926773,541.927612 221.598389,542.154724 230.193268,541.086731 
	C230.315247,543.608704 230.003632,546.043457 229.011993,548.762695 
	C211.731598,548.951416 198.028290,555.240356 188.297302,568.673828 
	C176.782364,584.570007 175.187958,602.001099 183.850800,619.584900 
	C192.864456,637.880737 208.377838,646.460571 228.656372,646.621094 
	C228.916656,648.472412 229.176941,650.323669 229.439545,652.645996 
z"/>
<path fill="#FFFCF8" opacity="1.000000" stroke="none" 
	d="
M971.350220,541.528381 
	C1002.756836,537.904663 1026.845581,560.640686 1030.844849,588.043762 
	C1035.420166,619.394165 1016.378845,646.799866 986.422241,652.468384 
	C982.221252,653.263367 977.817139,652.984558 973.014221,653.148071 
	C972.710022,651.234497 972.898621,649.375549 973.606445,647.084106 
	C977.927307,646.239502 981.810730,646.191040 985.517273,645.356750 
	C1010.316284,639.775146 1025.944702,617.022339 1022.944214,591.118896 
	C1020.109985,566.649902 998.683716,548.727600 972.693237,549.085632 
	C972.244995,546.689636 971.796814,544.293640 971.350220,541.528381 
z"/>
<path fill="#F7A22C" opacity="1.000000" stroke="none" 
	d="
M338.159576,868.700134 
	C304.134216,869.047913 277.453674,854.428101 258.970795,826.106750 
	C241.179520,798.845154 239.284775,769.467163 251.574265,738.954529 
	C253.202072,741.861328 254.568832,745.030579 255.740936,748.862488 
	C244.998184,782.970032 255.203339,818.871582 282.030334,841.317566 
	C296.018341,853.021301 311.953522,860.445190 330.562500,861.021606 
	C333.032898,863.482239 335.503296,865.942871 338.159576,868.700134 
z"/>
<path fill="#F7A22C" opacity="1.000000" stroke="none" 
	d="
M252.031952,462.975708 
	C240.242645,436.828552 240.784317,410.299530 253.879517,384.855042 
	C271.169342,351.260315 299.389771,333.892853 337.844482,332.906921 
	C335.916626,335.553955 333.503540,338.109955 330.360168,340.713196 
	C296.782898,344.360352 273.200684,361.369232 259.197296,390.980927 
	C249.744949,410.968964 248.607254,431.926514 255.994568,453.054047 
	C254.740112,456.254150 253.485657,459.454285 252.031952,462.975708 
z"/>
<path fill="#F7A22C" opacity="1.000000" stroke="none" 
	d="
M863.870239,333.295807 
	C897.898010,332.943237 924.554382,347.587280 943.028625,375.899597 
	C960.813538,403.155640 962.710571,432.524475 950.419922,463.025757 
	C948.791138,460.115173 947.424500,456.945343 946.247070,453.109741 
	C957.061890,418.949829 946.611145,382.638306 919.582703,360.348267 
	C905.652283,348.859924 889.857727,341.539001 871.439697,340.972321 
	C868.976990,338.512573 866.514343,336.052856 863.870239,333.295807 
z"/>
<path fill="#F7A22C" opacity="1.000000" stroke="none" 
	d="
M949.947021,739.020752 
	C960.816589,762.611511 960.722839,786.759644 951.104858,810.844360 
	C937.039001,846.067444 902.255493,869.358154 864.152710,869.091675 
	C866.080200,866.443665 868.493225,863.886902 871.637939,861.282593 
	C905.407410,857.572693 929.041138,840.442078 942.978516,810.543884 
	C952.250427,790.654175 953.312927,769.879211 945.994324,748.935364 
	C947.244751,745.737000 948.495117,742.538635 949.947021,739.020752 
z"/>
<path fill="#F7A22C" opacity="1.000000" stroke="none" 
	d="
M228.694153,646.257568 
	C208.377838,646.460571 192.864456,637.880737 183.850800,619.584900 
	C175.187958,602.001099 176.782364,584.570007 188.297302,568.673828 
	C198.028290,555.240356 211.731598,548.951416 228.802521,549.067566 
	C229.080353,551.425415 228.887619,553.762756 228.538101,556.431946 
	C204.798340,556.470398 186.470520,573.947449 186.091782,597.090332 
	C185.713379,620.211914 203.695953,638.663452 227.347717,638.988831 
	C228.090591,641.290405 228.411270,643.592224 228.694153,646.257568 
z"/>
<path fill="#F7A22C" opacity="1.000000" stroke="none" 
	d="
M972.689148,549.494751 
	C998.683716,548.727600 1020.109985,566.649902 1022.944214,591.118896 
	C1025.944702,617.022339 1010.316284,639.775146 985.517273,645.356750 
	C981.810730,646.191040 977.927307,646.239502 973.729797,646.634216 
	C973.573608,644.335510 973.813293,642.054199 974.136963,639.380981 
	C997.513672,638.961792 1015.732544,621.147888 1015.914124,598.222595 
	C1016.098572,574.935242 998.287537,557.071655 974.056763,556.741333 
	C973.283752,554.478455 972.984375,552.191162 972.689148,549.494751 
z"/>
<path fill="#FFFBF7" opacity="1.000000" stroke="none" 
	d="
M871.630005,341.273132 
	C889.857727,341.539001 905.652283,348.859924 919.582703,360.348267 
	C946.611145,382.638306 957.061890,418.949829 946.215576,452.747894 
	C944.309937,449.471710 942.624878,445.891632 940.939331,441.550598 
	C948.389404,398.596222 924.022766,364.774048 892.574463,352.500336 
	C888.157349,350.776398 883.344604,350.065948 878.715027,348.886322 
	C876.416809,346.448853 874.118530,344.011414 871.630005,341.273132 
z"/>
<path fill="#FFFBF7" opacity="1.000000" stroke="none" 
	d="
M945.730225,749.171997 
	C953.312927,769.879211 952.250427,790.654175 942.978516,810.543884 
	C929.041138,840.442078 905.407410,857.572693 871.904175,861.130676 
	C873.705322,858.512329 875.971985,855.998230 878.923340,853.367920 
	C881.069519,852.957947 882.549988,852.736572 883.989746,852.359924 
	C920.761353,842.741821 949.373413,805.343750 940.744141,760.430481 
	C942.318176,756.756592 943.892151,753.082642 945.730225,749.171997 
z"/>
<path fill="#FFFBF7" opacity="1.000000" stroke="none" 
	d="
M256.253845,452.814575 
	C248.607254,431.926514 249.744949,410.968964 259.197296,390.980927 
	C273.200684,361.369232 296.782898,344.360352 330.095093,340.866882 
	C328.146423,343.360168 325.732544,345.747009 322.670959,348.418030 
	C283.531097,356.404297 252.269516,394.997803 261.258728,441.357208 
	C259.676880,445.096527 258.095001,448.835815 256.253845,452.814575 
z"/>
<path fill="#FFFBF7" opacity="1.000000" stroke="none" 
	d="
M330.376404,860.717041 
	C311.953522,860.445190 296.018341,853.021301 282.030334,841.317566 
	C255.203339,818.871582 244.998184,782.970032 255.771881,749.222595 
	C257.700317,752.589905 259.403137,756.259705 261.080444,760.726929 
	C253.774796,805.224731 281.193695,846.013672 322.824097,853.413452 
	C325.279480,855.746460 327.734894,858.079529 330.376404,860.717041 
z"/>
<path fill="#F7A12A" opacity="1.000000" stroke="none" 
	d="
M940.520264,760.635620 
	C949.373413,805.343750 920.761353,842.741821 883.989746,852.359924 
	C882.549988,852.736572 881.069519,852.957947 879.174194,853.175293 
	C881.531738,849.858887 884.323059,846.618896 887.744385,843.150757 
	C888.581787,842.580750 888.789124,842.238892 888.996460,841.897034 
	C888.996460,841.897034 888.984436,841.966248 889.287231,842.195312 
	C903.064758,837.602844 913.669006,828.962341 921.779053,817.375366 
	C931.116455,804.034729 935.895996,789.241882 934.407959,772.757202 
	C936.370789,768.785034 938.333618,764.812927 940.520264,760.635620 
z"/>
<path fill="#F7A12A" opacity="1.000000" stroke="none" 
	d="
M878.931641,349.168396 
	C883.344604,350.065948 888.157349,350.776398 892.574463,352.500336 
	C924.022766,364.774048 948.389404,398.596222 940.841919,441.168152 
	C938.727905,437.628082 936.710754,433.709473 934.708923,429.115082 
	C936.388184,400.278809 918.954834,371.963318 893.006104,360.795837 
	C891.766541,360.262390 890.286621,360.287598 888.918579,360.052643 
	C888.918579,360.052643 888.985535,360.033417 889.010986,359.704926 
	C888.577454,359.226624 888.118591,359.076782 887.659668,358.926941 
	C884.822510,355.768127 881.985352,352.609314 878.931641,349.168396 
z"/>
<path fill="#F7A12A" opacity="1.000000" stroke="none" 
	d="
M322.784790,853.059570 
	C281.193695,846.013672 253.774796,805.224731 261.158508,761.076538 
	C263.274323,764.486511 265.286530,768.344238 267.282349,772.874878 
	C265.666626,801.824158 283.006012,829.987854 308.981598,841.189392 
	C310.226135,841.726074 311.710297,841.706848 313.082886,841.946533 
	C313.082886,841.946533 313.015503,841.965454 312.994568,842.293823 
	C313.432983,842.769592 313.892395,842.917053 314.351776,843.064453 
	C317.149658,846.278198 319.947540,849.491943 322.784790,853.059570 
z"/>
<path fill="#F7A12A" opacity="1.000000" stroke="none" 
	d="
M261.500031,441.091064 
	C252.269516,394.997803 283.531097,356.404297 322.423492,348.633118 
	C320.186554,351.903564 317.549377,355.243042 314.283691,358.826050 
	C313.437744,359.414032 313.220276,359.758545 313.002838,360.103058 
	C313.002838,360.103058 313.014557,360.034912 312.720551,359.786682 
	C298.608948,364.496368 287.845795,373.433197 279.663025,385.415710 
	C270.674774,398.577698 266.125336,413.106964 267.568695,429.219147 
	C265.626251,433.087738 263.683777,436.956360 261.500031,441.091064 
z"/>
<path fill="#FFFAF7" opacity="1.000000" stroke="none" 
	d="
M267.732849,428.869690 
	C266.125336,413.106964 270.674774,398.577698 279.663025,385.415710 
	C287.845795,373.433197 298.608948,364.496368 312.753418,359.797455 
	C310.400269,363.508606 307.720276,366.960785 304.577881,370.726440 
	C303.755402,371.401489 303.395386,371.762970 303.035339,372.124481 
	C303.035339,372.124481 303.059082,372.056458 302.809204,372.099976 
	C302.374512,372.444153 302.189697,372.744781 302.004913,373.045441 
	C302.004913,373.045441 302.037018,373.041779 301.695862,373.043274 
	C288.425415,382.732208 280.059662,395.312927 277.091431,411.315582 
	C274.026611,417.050476 270.961823,422.785339 267.732849,428.869690 
z"/>
<path fill="#FFFAF7" opacity="1.000000" stroke="none" 
	d="
M934.251282,773.110840 
	C935.895996,789.241882 931.116455,804.034729 921.779053,817.375366 
	C913.669006,828.962341 903.064758,837.602844 889.253174,842.186523 
	C891.588318,838.496338 894.260315,835.044006 897.423523,831.258545 
	C898.607910,830.267212 899.301025,829.608887 899.994141,828.950562 
	C899.994141,828.950562 899.962158,828.955566 900.301636,828.950073 
	C913.580811,819.249573 921.924255,806.642639 924.907959,790.640259 
	C927.970215,784.914978 931.032410,779.189697 934.251282,773.110840 
z"/>
<path fill="#FFFAF7" opacity="1.000000" stroke="none" 
	d="
M313.047852,841.604370 
	C311.710297,841.706848 310.226135,841.726074 308.981598,841.189392 
	C283.006012,829.987854 265.666626,801.824158 267.424866,773.154480 
	C270.663635,778.518738 273.743500,784.276245 276.939209,790.763794 
	C277.359650,792.786255 277.579620,794.105652 277.981873,795.367004 
	C282.381317,809.162231 289.482971,821.033142 302.049072,828.986511 
	C302.049072,828.986511 302.037140,828.958496 302.076172,829.234009 
	C302.455353,829.641846 302.795441,829.774231 303.135559,829.906616 
	C303.135559,829.906616 303.064636,829.936707 303.179871,830.131592 
	C303.743988,830.559753 304.192871,830.793152 304.641785,831.026489 
	C307.432129,834.438354 310.222473,837.850281 313.047852,841.604370 
z"/>
<path fill="#FFFAF7" opacity="1.000000" stroke="none" 
	d="
M888.956543,360.393494 
	C890.286621,360.287598 891.766541,360.262390 893.006104,360.795837 
	C918.954834,371.963318 936.388184,400.278809 934.568481,428.833252 
	C931.334106,423.474152 928.255432,417.721100 925.060242,411.238251 
	C924.598511,409.054840 924.361877,407.565094 923.891418,406.153198 
	C919.378174,392.608459 912.414062,380.820282 899.951904,373.011383 
	C899.951904,373.011383 899.962158,373.042847 899.924072,372.766602 
	C899.546265,372.358032 899.206543,372.225677 898.866882,372.093323 
	C898.866882,372.093323 898.936157,372.064056 898.820679,371.868713 
	C898.256592,371.440521 897.807983,371.207672 897.359375,370.974854 
	C894.571106,367.561340 891.782837,364.147827 888.956543,360.393494 
z"/>
<path fill="#F79D2E" opacity="1.000000" stroke="none" 
	d="
M924.636658,790.873535 
	C921.924255,806.642639 913.580811,819.249573 900.295410,828.965088 
	C900.411926,827.818359 900.685791,826.526184 901.365112,825.503357 
	C908.995911,814.013977 916.688965,802.566040 924.636658,790.873535 
z"/>
<path fill="#F79D2E" opacity="1.000000" stroke="none" 
	d="
M899.853882,373.366638 
	C912.414062,380.820282 919.378174,392.608459 923.891418,406.153198 
	C924.361877,407.565094 924.598511,409.054840 924.925537,410.926514 
	C916.523560,398.803680 908.139709,386.262817 899.853882,373.366638 
z"/>
<path fill="#F79D2E" opacity="1.000000" stroke="none" 
	d="
M302.152588,828.632080 
	C289.482971,821.033142 282.381317,809.162231 277.981873,795.367004 
	C277.579620,794.105652 277.359650,792.786255 277.072693,791.076172 
	C285.478943,803.198242 293.867554,815.737915 302.152588,828.632080 
z"/>
<path fill="#F79D2E" opacity="1.000000" stroke="none" 
	d="
M277.362305,411.086975 
	C280.059662,395.312927 288.425415,382.732208 301.700989,373.027954 
	C301.570587,374.174835 301.271790,375.456543 300.589935,376.484100 
	C292.971802,387.964813 285.294495,399.406281 277.362305,411.086975 
z"/>
<path fill="#F79D2E" opacity="1.000000" stroke="none" 
	d="
M899.687744,828.858337 
	C899.301025,829.608887 898.607910,830.267212 897.626892,830.979248 
	C898.019714,830.277405 898.700500,829.521729 899.687744,828.858337 
z"/>
<path fill="#F79D2E" opacity="1.000000" stroke="none" 
	d="
M303.309784,372.158752 
	C303.395386,371.762970 303.755402,371.401489 304.370300,371.004456 
	C304.278198,371.376953 303.931213,371.785004 303.309784,372.158752 
z"/>
<path fill="#F79D2E" opacity="1.000000" stroke="none" 
	d="
M897.482727,371.219116 
	C897.807983,371.207672 898.256592,371.440521 898.833496,371.904053 
	C898.509949,371.910980 898.057983,371.687164 897.482727,371.219116 
z"/>
<path fill="#F79D2E" opacity="1.000000" stroke="none" 
	d="
M304.517426,830.783081 
	C304.192871,830.793152 303.743988,830.559753 303.166565,830.095459 
	C303.489716,830.089539 303.941376,830.314575 304.517426,830.783081 
z"/>
<path fill="#F79D2E" opacity="1.000000" stroke="none" 
	d="
M898.912109,372.394287 
	C899.206543,372.225677 899.546265,372.358032 899.940491,372.768311 
	C899.649170,372.929260 899.303223,372.812256 898.912109,372.394287 
z"/>
<path fill="#FFFAF7" opacity="1.000000" stroke="none" 
	d="
M313.323669,360.042847 
	C313.220276,359.758545 313.437744,359.414032 314.017242,358.989716 
	C314.134399,359.267517 313.889465,359.625092 313.323669,360.042847 
z"/>
<path fill="#FFFAF7" opacity="1.000000" stroke="none" 
	d="
M887.803467,359.213257 
	C888.118591,359.076782 888.577454,359.226624 889.016785,359.739258 
	C888.647217,359.901245 888.297302,359.700378 887.803467,359.213257 
z"/>
<path fill="#F79D2E" opacity="1.000000" stroke="none" 
	d="
M302.307770,373.084595 
	C302.189697,372.744781 302.374512,372.444153 302.842194,372.114380 
	C302.953613,372.431427 302.782135,372.777588 302.307770,373.084595 
z"/>
<path fill="#FFFAF7" opacity="1.000000" stroke="none" 
	d="
M888.681641,841.951782 
	C888.789124,842.238892 888.581787,842.580750 888.017151,842.990967 
	C887.895508,842.708313 888.131104,842.357422 888.681641,841.951782 
z"/>
<path fill="#FFFAF7" opacity="1.000000" stroke="none" 
	d="
M314.207092,842.776611 
	C313.892395,842.917053 313.432983,842.769592 312.988647,842.259277 
	C313.356598,842.093872 313.709473,842.291321 314.207092,842.776611 
z"/>
<path fill="#F79D2E" opacity="1.000000" stroke="none" 
	d="
M303.090393,829.604370 
	C302.795441,829.774231 302.455353,829.641846 302.061218,829.231201 
	C302.353180,829.069275 302.699188,829.185730 303.090393,829.604370 
z"/>
<path fill="#FFFCF8" opacity="1.000000" stroke="none" 
	d="
M160.275848,461.193176 
	C167.690460,458.182800 174.761124,455.322662 182.534073,452.178467 
	C183.172699,455.229370 183.658875,457.551910 184.094269,459.631897 
	C119.600578,484.511597 82.025475,529.717529 84.966652,599.883301 
	C87.723923,665.661743 126.161362,706.764771 187.387207,727.945984 
	C186.470978,733.773682 186.470963,733.773743 180.830078,732.083252 
	C116.454170,712.791199 72.412575,652.339539 76.373192,585.669495 
	C79.772255,528.452148 109.287865,487.471405 160.275848,461.193176 
z"/>
<path fill="#FFFCF9" opacity="1.000000" stroke="none" 
	d="
M190.515778,719.450256 
	C179.491928,715.490051 167.905167,712.629456 158.133987,706.751038 
	C111.801186,678.876770 89.409416,637.467468 92.205643,583.334961 
	C94.879013,531.580811 134.395691,482.722595 184.139221,468.360809 
	C184.591415,468.230255 185.082397,468.234070 185.922363,468.129425 
	C186.663040,470.481171 187.398666,472.816925 188.095337,475.028961 
	C130.626465,497.716064 97.438980,538.448303 100.674187,601.214111 
	C103.670074,659.336670 137.887177,695.650085 192.522354,714.340271 
	C191.975800,715.860168 191.382614,717.509766 190.515778,719.450256 
z"/>
<path fill="#FFFCF9" opacity="1.000000" stroke="none" 
	d="
M157.230103,510.218018 
	C85.332924,568.195251 111.527275,678.096802 198.832886,700.474060 
	C196.700729,707.161926 196.700714,707.161987 189.900177,705.088501 
	C141.097687,690.208252 107.610329,645.167358 107.510300,594.273071 
	C107.411591,544.051575 140.505371,498.695770 188.195877,483.695648 
	C188.954544,483.457001 189.723495,483.251099 190.763474,482.950104 
	C191.867111,485.562927 192.889938,487.984406 194.083466,490.809998 
	C180.787323,495.299805 168.438004,501.329407 157.230103,510.218018 
z"/>
<path fill="#FFFCF8" opacity="1.000000" stroke="none" 
	d="
M134.283722,572.427734 
	C121.655510,625.352600 153.621979,672.198303 198.670044,685.445312 
	C201.213120,686.193115 203.787613,686.834045 206.639069,687.603455 
	C205.365387,691.913147 203.582718,693.726074 198.510056,692.296448 
	C153.086945,679.495056 122.133461,638.583191 123.161522,592.272888 
	C124.109787,549.556824 154.810516,509.847595 195.840881,498.285278 
	C196.300735,498.155701 196.807266,498.191772 197.580475,498.125916 
	C198.721771,500.208069 199.890060,502.339417 201.202774,504.734283 
	C167.002136,515.654236 144.324875,537.565369 134.283722,572.427734 
z"/>
<path fill="#FFFCF8" opacity="1.000000" stroke="none" 
	d="
M147.283203,632.643982 
	C125.748009,584.054871 148.934464,530.150024 198.091309,513.794434 
	C205.738403,511.250061 205.738403,511.250061 209.867416,518.540100 
	C168.630661,531.443726 145.783844,558.415039 147.520813,602.704956 
	C148.676147,632.163635 171.019684,667.340454 216.110214,674.886047 
	C214.587387,679.142944 212.473282,681.258606 207.416824,680.046265 
	C180.178314,673.516052 160.151215,657.956604 147.283203,632.643982 
z"/>
<path fill="#FFFCF8" opacity="1.000000" stroke="none" 
	d="
M206.196487,657.962708 
	C214.036972,659.312866 221.487701,660.573669 228.999680,661.844788 
	C226.416733,665.572266 223.402863,667.766113 217.819351,667.230103 
	C185.152771,664.093994 156.800156,635.060120 154.940979,602.290588 
	C152.837540,565.215576 175.671783,534.680603 210.988068,526.523193 
	C217.331787,525.057861 218.521225,529.565125 221.788696,532.552185 
	C184.467163,539.171326 163.886963,560.649841 163.104385,598.663208 
	C162.555374,625.330933 179.679535,648.055298 206.196487,657.962708 
z"/>
<path fill="#FFFCF8" opacity="1.000000" stroke="none" 
	d="
M1096.234619,667.210815 
	C1144.148438,591.214355 1109.139282,489.364136 1017.989380,460.288605 
	C1018.353088,458.003082 1018.730713,455.629761 1019.210083,452.616852 
	C1046.352051,460.685059 1069.222534,474.838959 1087.947632,495.476074 
	C1112.676514,522.730042 1125.739990,554.881958 1125.909546,591.733765 
	C1126.276367,671.459106 1065.176880,722.228882 1015.836792,733.045410 
	C1015.319153,731.403687 1014.788452,729.720581 1014.102112,727.543945 
	C1048.780884,717.443542 1076.363159,697.813538 1096.234619,667.210815 
z"/>
<path fill="#FFFCF9" opacity="1.000000" stroke="none" 
	d="
M1104.055176,633.015930 
	C1088.333252,678.229553 1057.201904,706.536377 1012.042175,720.378540 
	C1011.450195,719.339233 1011.072266,718.814392 1010.836121,718.232117 
	C1010.341614,717.012878 1009.921753,715.763245 1009.494751,714.590637 
	C1069.806763,692.919250 1104.594482,651.638855 1101.265747,586.284058 
	C1098.431885,530.640686 1065.789551,494.876312 1014.062317,475.333160 
	C1014.299072,474.310242 1014.532837,473.053802 1014.888428,471.832825 
	C1015.250916,470.587708 1015.733154,469.377533 1016.156006,468.171906 
	C1079.428223,485.606323 1127.766846,556.506287 1104.055176,633.015930 
z"/>
<path fill="#FFFCF9" opacity="1.000000" stroke="none" 
	d="
M1050.737305,515.253784 
	C1038.182251,503.928070 1024.002686,496.105927 1007.946045,490.909241 
	C1009.047302,488.183777 1010.018005,485.781403 1011.475830,482.173431 
	C1019.881348,486.079834 1028.549561,489.110138 1036.180786,493.820526 
	C1078.408203,519.885742 1099.114380,558.074951 1093.383301,607.374207 
	C1087.632324,656.844910 1058.572754,689.231750 1011.430054,705.239197 
	C1005.615845,707.213379 1005.559265,707.046692 1002.937256,700.392761 
	C1005.260254,699.623840 1007.562622,698.838867 1009.879211,698.098267 
	C1058.926392,682.419373 1090.381104,635.891479 1085.807373,584.870667 
	C1083.340210,557.349976 1071.209229,534.299683 1050.737305,515.253784 
z"/>
<path fill="#FFFCF8" opacity="1.000000" stroke="none" 
	d="
M1040.255615,526.736816 
	C1028.764282,516.185120 1015.609253,509.284088 1000.704407,504.850647 
	C1002.109924,502.304108 1003.290283,500.165405 1004.606628,497.780487 
	C1028.808960,505.191681 1048.094238,518.916321 1062.011353,539.788513 
	C1100.313354,597.231873 1069.743530,675.309387 1002.405518,692.609436 
	C997.599121,693.844238 996.770752,691.031860 995.279358,688.001160 
	C1069.159058,673.101074 1097.281616,580.486633 1040.255615,526.736816 
z"/>
<path fill="#FFFCF8" opacity="1.000000" stroke="none" 
	d="
M1022.333374,532.644653 
	C1012.328369,527.522217 1002.607788,522.619446 992.805664,517.675598 
	C995.564209,511.205170 995.757141,511.116699 1003.520020,513.666931 
	C1041.011475,525.983459 1064.895386,561.168884 1062.933228,601.193542 
	C1061.111450,638.356506 1032.766846,671.366943 995.682556,679.863037 
	C990.807129,680.979980 987.684875,680.127930 985.830383,675.084961 
	C1025.698486,666.601196 1050.537720,643.176025 1054.441895,601.816101 
	C1057.120361,573.439026 1045.293457,550.284180 1022.333374,532.644653 
z"/>
<path fill="#FFFCF8" opacity="1.000000" stroke="none" 
	d="
M1018.717468,539.255371 
	C1042.818481,558.906799 1052.391968,583.829834 1044.931641,613.673767 
	C1037.573486,643.108887 1017.584045,660.409546 987.973999,666.615540 
	C982.071350,667.852539 976.323853,668.318909 972.641724,661.020447 
	C991.567444,661.499512 1008.077271,655.756897 1021.142639,642.025635 
	C1034.089355,628.419067 1039.987671,612.002136 1038.962524,593.263489 
	C1038.092651,577.362122 1032.077759,563.524597 1021.026428,552.034729 
	C1010.070923,540.644592 996.507446,534.557739 980.696228,533.306946 
	C984.292847,525.972839 985.801392,524.644348 992.764038,527.221680 
	C1001.571289,530.481812 1009.897644,535.040955 1018.717468,539.255371 
z"/>
<path fill="#E2034B" opacity="1.000000" stroke="none" 
	d="
M627.047974,561.766113 
	C624.667908,577.738770 612.287720,587.028259 598.468445,582.815918 
	C594.171143,581.505920 589.803711,578.324219 586.953857,574.798645 
	C580.770203,567.148865 581.302856,552.627441 587.079346,544.691589 
	C592.299683,537.519836 602.248596,534.299194 610.694885,537.046936 
	C620.717529,540.307495 626.986511,549.603455 627.047974,561.766113 
z"/>
<path fill="#E3084F" opacity="1.000000" stroke="none" 
	d="
M499.254150,545.353760 
	C506.421478,536.998413 514.624451,534.250916 523.127075,537.410950 
	C514.622437,548.746643 506.192078,559.983276 497.273682,571.870422 
	C493.998840,562.196228 494.067291,553.755127 499.254150,545.353760 
z"/>
<path fill="#E2034B" opacity="1.000000" stroke="none" 
	d="
M798.979980,573.844604 
	C790.621277,584.689941 778.243958,586.964417 768.101685,579.809448 
	C757.923828,572.629395 755.265015,556.898315 762.352051,545.791931 
	C768.501343,536.155090 781.628784,533.216614 791.857056,539.187439 
	C802.788208,545.568604 806.030457,560.815430 798.979980,573.844604 
z"/>
</svg>